<svg width="658" height="105" viewBox="0 0 658 105" fill="none" xmlns="http://www.w3.org/2000/svg">
<g filter="url(#filter0_g_2_28)">
<path d="M55.8545 5C84.1479 5 106.709 26.2929 106.709 52.1123C106.709 77.9316 84.1478 99.2236 55.8545 99.2236C27.5613 99.2236 5.00015 77.9316 5 52.1123C5 26.2929 27.5612 5.00006 55.8545 5Z" stroke="#EFEFEF" stroke-width="6"/>
</g>
<g filter="url(#filter1_g_2_28)">
<path d="M35.1811 39.64C43.5541 39.6402 50.3735 46.476 50.3735 54.9476C50.3734 63.4192 43.554 70.2541 35.1811 70.2543C26.8081 70.2543 19.9879 63.4193 19.9878 54.9476C19.9878 46.4758 26.808 39.64 35.1811 39.64Z" stroke="#EFEFEF" stroke-width="6"/>
</g>
<g filter="url(#filter2_g_2_28)">
<path d="M79.2563 33.9371C87.6293 33.9373 94.4487 40.773 94.4487 49.2447C94.4486 57.7162 87.6292 64.5511 79.2563 64.5513C70.8833 64.5513 64.0631 57.7164 64.063 49.2447C64.063 40.7729 70.8832 33.9371 79.2563 33.9371Z" stroke="#EFEFEF" stroke-width="6"/>
</g>
<g filter="url(#filter3_g_2_28)">
<path d="M170.583 30.8331H135.653C135.186 30.8331 134.696 30.8564 134.183 30.9031C133.67 30.9498 133.156 31.0431 132.643 31.1831C132.55 31.2298 132.41 31.2531 132.223 31.2531C132.083 31.2531 131.966 31.2998 131.873 31.3931C131.686 31.4864 131.546 31.6264 131.453 31.8131C131.36 31.9064 131.243 32.0231 131.103 32.1631C130.963 32.3031 130.846 32.4198 130.753 32.5131C130.566 32.8398 130.426 33.2131 130.333 33.6331C130.24 34.0064 130.17 34.3798 130.123 34.7531C130.03 35.7798 129.983 37.0164 129.983 38.4631C130.03 39.8631 130.053 41.0998 130.053 42.1731V73.1831C130.053 73.8364 130.053 74.5364 130.053 75.2831C130.053 75.9831 130.146 76.6364 130.333 77.2431C130.52 77.8031 130.776 78.2464 131.103 78.5731C131.196 78.6198 131.29 78.6898 131.383 78.7831C131.523 78.8298 131.64 78.8998 131.733 78.9931C131.826 79.0398 131.92 79.1098 132.013 79.2031C132.106 79.2964 132.2 79.3664 132.293 79.4131C132.433 79.4598 132.596 79.5064 132.783 79.5531C132.97 79.5531 133.133 79.5764 133.273 79.6231C133.926 79.7631 134.603 79.8331 135.303 79.8331C136.05 79.8331 136.75 79.8331 137.403 79.8331H139.293C139.806 79.8331 140.273 79.8331 140.693 79.8331C141.16 79.8798 141.626 79.9498 142.093 80.0431C142.373 80.1364 142.56 80.1831 142.653 80.1831C142.7 80.2298 142.746 80.2298 142.793 80.1831C142.84 80.1831 142.863 80.2064 142.863 80.2531C142.91 80.2998 142.91 80.3231 142.863 80.3231C142.816 80.3698 142.793 80.4164 142.793 80.4631C142.746 80.5098 142.7 80.6264 142.653 80.8131C142.653 80.9998 142.606 81.1398 142.513 81.2331C142.326 81.3264 142.07 81.3731 141.743 81.3731C141.043 81.5131 140.296 81.5831 139.503 81.5831C138.476 81.6298 137.17 81.6531 135.583 81.6531C134.043 81.6531 132.736 81.6298 131.663 81.5831C131.103 81.5364 130.543 81.4664 129.983 81.3731C129.47 81.3264 128.956 81.1864 128.443 80.9531C128.21 80.8598 127.976 80.7431 127.743 80.6031C127.65 80.5098 127.51 80.3231 127.323 80.0431C127.276 79.9498 127.183 79.8564 127.043 79.7631C126.95 79.6698 126.88 79.5764 126.833 79.4831C126.786 79.3431 126.74 79.2031 126.693 79.0631C126.646 78.8764 126.6 78.7131 126.553 78.5731C126.366 77.9198 126.273 77.2431 126.273 76.5431C126.273 75.8431 126.273 75.1431 126.273 74.4431V44.6231C126.273 43.9231 126.25 42.9664 126.203 41.7531C126.203 40.4931 126.226 39.2564 126.273 38.0431C126.32 36.7831 126.39 35.8031 126.483 35.1031C126.576 34.4498 126.67 33.7964 126.763 33.1431C126.856 32.4431 126.996 31.7898 127.183 31.1831C127.37 30.2964 127.65 29.5498 128.023 28.9431C128.303 28.5231 128.653 28.1731 129.073 27.8931C129.54 27.6131 130.006 27.4264 130.473 27.3331C131.126 27.0998 131.826 27.0064 132.573 27.0531C133.366 27.0531 134.09 27.0531 134.743 27.0531H164.073C165.146 27.0531 166.453 27.0531 167.993 27.0531C169.533 27.0531 170.816 27.1698 171.843 27.4031C172.73 27.5431 173.523 27.8931 174.223 28.4531C174.316 28.4998 174.41 28.5698 174.503 28.6631C174.643 28.7564 174.736 28.8498 174.783 28.9431C174.876 29.0364 174.923 29.1998 174.923 29.4331C174.97 29.6198 175.016 29.7831 175.063 29.9231C175.063 29.9698 175.086 30.0398 175.133 30.1331C175.18 30.1798 175.18 30.2498 175.133 30.3431C175.133 30.2964 175.016 30.3431 174.783 30.4831C174.69 30.5298 174.55 30.6231 174.363 30.7631C174.223 30.8564 174.083 30.9264 173.943 30.9731C173.803 31.0198 173.64 31.0198 173.453 30.9731C173.313 30.9264 173.173 30.9031 173.033 30.9031C172.66 30.9031 172.263 30.9031 171.843 30.9031C171.47 30.8564 171.05 30.8331 170.583 30.8331ZM168.203 81.5831C167.176 81.5831 165.87 81.5831 164.283 81.5831C162.743 81.6298 161.436 81.6298 160.363 81.5831C160.036 81.5831 159.64 81.5598 159.173 81.5131C158.753 81.5131 158.356 81.4664 157.983 81.3731C157.843 81.3264 157.703 81.2564 157.563 81.1631C157.47 81.1164 157.353 81.0698 157.213 81.0231C157.12 80.9298 157.003 80.8598 156.863 80.8131C156.723 80.7664 156.606 80.7198 156.513 80.6731C156.373 80.5331 156.256 80.3698 156.163 80.1831C156.07 80.0431 155.953 79.9031 155.813 79.7631C155.72 79.6231 155.65 79.4831 155.603 79.3431C155.556 79.2498 155.51 79.1098 155.463 78.9231C155.416 78.7364 155.37 78.5731 155.323 78.4331C155.136 77.5464 155.043 76.6364 155.043 75.7031C155.09 74.7231 155.113 73.7898 155.113 72.9031V59.4631C155.113 58.3898 155.113 57.1764 155.113 55.8231C155.16 54.4698 155.136 53.2798 155.043 52.2531C154.996 51.8331 154.95 51.3898 154.903 50.9231C154.856 50.4564 154.716 50.0364 154.483 49.6631C154.436 49.5698 154.343 49.4531 154.203 49.3131C154.063 49.1731 153.946 49.0564 153.853 48.9631C153.806 48.9164 153.76 48.8698 153.713 48.8231C153.666 48.7298 153.596 48.6598 153.503 48.6131C153.223 48.4264 152.896 48.2864 152.523 48.1931C152.15 48.0998 151.8 48.0298 151.473 47.9831C151.286 47.8898 151.076 47.8431 150.843 47.8431C150.656 47.7964 150.493 47.6798 150.353 47.4931C150.26 47.3998 150.166 47.3064 150.073 47.2131C149.98 47.1198 149.863 47.0031 149.723 46.8631C149.723 46.8164 149.793 46.7698 149.933 46.7231C150.12 46.6764 150.236 46.6298 150.283 46.5831L150.983 46.3031C151.216 46.2564 151.473 46.2331 151.753 46.2331C152.033 46.2331 152.29 46.2331 152.523 46.2331C153.083 46.2331 153.666 46.2331 154.273 46.2331C154.88 46.2331 155.486 46.2798 156.093 46.3731C156.233 46.4198 156.373 46.4431 156.513 46.4431C156.7 46.4431 156.863 46.4664 157.003 46.5131L157.703 47.0031C157.796 47.0498 157.913 47.1198 158.053 47.2131C158.193 47.3064 158.286 47.3998 158.333 47.4931C158.38 47.5398 158.403 47.5864 158.403 47.6331C158.403 47.6798 158.426 47.7498 158.473 47.8431C158.613 48.1698 158.73 48.5198 158.823 48.8931C158.916 49.2664 158.94 49.6631 158.893 50.0831C158.893 50.5031 158.893 50.8998 158.893 51.2731V74.5831C158.893 75.0031 158.893 75.4464 158.893 75.9131C158.94 76.3798 159.01 76.7998 159.103 77.1731C159.196 77.3131 159.266 77.4531 159.313 77.5931C159.406 77.6864 159.476 77.7798 159.523 77.8731C159.616 77.9664 159.686 78.0831 159.733 78.2231C159.78 78.3631 159.85 78.4798 159.943 78.5731C160.176 78.8531 160.48 79.0631 160.853 79.2031C161.226 79.3431 161.576 79.4598 161.903 79.5531C162.603 79.7398 163.326 79.8331 164.073 79.8331C164.82 79.8331 165.566 79.8331 166.313 79.8331H168.203C168.623 79.8331 169.043 79.8331 169.463 79.8331C169.883 79.8331 170.28 79.8798 170.653 79.9731C170.746 79.9731 170.886 79.9731 171.073 79.9731C171.306 80.0198 171.446 80.1364 171.493 80.3231C171.493 80.3698 171.493 80.4864 171.493 80.6731C171.54 80.8598 171.54 80.9998 171.493 81.0931C171.446 81.1398 171.33 81.1631 171.143 81.1631C171.003 81.2098 170.886 81.2564 170.793 81.3031C170.046 81.4898 169.183 81.5831 168.203 81.5831ZM234.945 64.7831C234.805 65.8098 234.572 67.0231 234.245 68.4231C233.918 69.7764 233.452 70.9898 232.845 72.0631C232.565 72.5298 232.262 73.0198 231.935 73.5331C231.608 74.0464 231.258 74.5131 230.885 74.9331C230.418 75.4464 229.928 75.9598 229.415 76.4731C228.902 76.9398 228.342 77.3831 227.735 77.8031C227.315 78.2231 226.568 78.6431 225.495 79.0631C224.422 79.4831 223.185 79.8798 221.785 80.2531C220.432 80.6264 219.055 80.9531 217.655 81.2331C216.302 81.5131 215.088 81.7231 214.015 81.8631C212.942 82.0498 212.195 82.1431 211.775 82.1431C210.748 82.1431 209.488 82.0731 207.995 81.9331C206.502 81.8398 205.218 81.6531 204.145 81.3731C203.818 81.2798 203.492 81.1864 203.165 81.0931C202.885 81.0464 202.582 80.9764 202.255 80.8831C202.208 80.8364 202.115 80.7898 201.975 80.7431C201.882 80.7431 201.788 80.7198 201.695 80.6731L201.625 80.1831C201.718 80.1364 201.858 80.1364 202.045 80.1831C202.232 80.2298 202.348 80.2531 202.395 80.2531C202.722 80.2998 203.048 80.3231 203.375 80.3231C203.702 80.3698 204.028 80.3931 204.355 80.3931C205.242 80.4398 206.128 80.4631 207.015 80.4631C207.902 80.4631 208.788 80.4164 209.675 80.3231C210.188 80.1831 211.145 79.8798 212.545 79.4131C213.992 78.8998 215.555 78.3164 217.235 77.6631C218.962 76.9631 220.525 76.2631 221.925 75.5631C223.372 74.8631 224.352 74.2564 224.865 73.7431C225.565 73.0431 226.218 72.0398 226.825 70.7331C227.432 69.4264 227.945 68.1198 228.365 66.8131C228.832 65.5064 229.158 64.5031 229.345 63.8031C229.532 62.7298 229.625 61.4698 229.625 60.0231C229.672 58.5298 229.695 57.2698 229.695 56.2431C229.695 55.5431 229.695 54.6098 229.695 53.4431C229.695 52.2298 229.672 51.0398 229.625 49.8731C229.578 48.6598 229.485 47.7031 229.345 47.0031C229.205 46.4898 228.925 45.7431 228.505 44.7631C228.085 43.7364 227.595 42.6631 227.035 41.5431C226.522 40.3764 225.962 39.3031 225.355 38.3231C224.748 37.2964 224.188 36.5264 223.675 36.0131C223.162 35.4998 222.182 34.9398 220.735 34.3331C219.288 33.6798 217.702 33.0731 215.975 32.5131C214.295 31.9064 212.732 31.4164 211.285 31.0431C209.838 30.6231 208.858 30.3664 208.345 30.2731C207.832 30.2264 207.038 30.2264 205.965 30.2731C204.892 30.2731 203.748 30.3198 202.535 30.4131C201.322 30.5064 200.178 30.6464 199.105 30.8331C198.032 31.0198 197.238 31.2531 196.725 31.5331C195.698 31.9998 194.392 32.6064 192.805 33.3531C191.265 34.0531 189.958 34.9164 188.885 35.9431C188.138 36.5498 187.438 37.2964 186.785 38.1831L186.015 39.0231C185.875 39.1631 185.805 39.2331 185.805 39.2331C185.758 39.2331 185.758 39.1631 185.805 39.0231C185.898 38.8364 185.968 38.7431 186.015 38.7431C186.108 38.4164 186.225 38.1131 186.365 37.8331C186.505 37.5531 186.668 37.2498 186.855 36.9231C187.555 35.8498 188.418 34.8464 189.445 33.9131C190.472 32.9331 191.498 32.0698 192.525 31.3231C193.318 30.7631 194.158 30.2964 195.045 29.9231C195.932 29.5031 196.818 29.1298 197.705 28.8031C198.125 28.3831 199.012 28.0331 200.365 27.7531C201.765 27.4264 203.375 27.1931 205.195 27.0531C207.062 26.8664 208.905 26.7731 210.725 26.7731C212.592 26.7264 214.202 26.7964 215.555 26.9831C216.955 27.1231 217.865 27.3798 218.285 27.7531C219.265 28.0331 220.222 28.3831 221.155 28.8031C222.088 29.1764 222.998 29.6198 223.885 30.1331C224.958 30.8798 226.125 31.8131 227.385 32.9331C228.645 34.0531 229.718 35.1498 230.605 36.2231C231.398 37.2498 232.028 38.5098 232.495 40.0031C233.008 41.4964 233.452 42.7798 233.825 43.8531C234.058 44.7864 234.292 45.7431 234.525 46.7231C234.758 47.7031 234.922 48.6598 235.015 49.5931C235.155 50.6198 235.225 51.8098 235.225 53.1631C235.272 54.5164 235.295 55.7298 235.295 56.8031C235.295 57.8298 235.272 59.1364 235.225 60.7231C235.178 62.2631 235.085 63.6164 234.945 64.7831ZM208.135 47.0731C207.948 47.4931 207.738 47.9364 207.505 48.4031C207.318 48.8231 207.178 49.2664 207.085 49.7331C206.758 50.7598 206.572 51.8331 206.525 52.9531C206.525 54.0731 206.525 55.1698 206.525 56.2431C206.525 56.8964 206.502 57.5964 206.455 58.3431C206.455 59.0431 206.548 59.7198 206.735 60.3731C206.828 60.5598 206.922 60.7931 207.015 61.0731C207.108 61.3531 207.202 61.5864 207.295 61.7731C207.482 62.0064 207.692 62.2164 207.925 62.4031C208.158 62.5898 208.368 62.7998 208.555 63.0331C208.648 63.1731 208.788 63.3364 208.975 63.5231C209.208 63.7098 209.348 63.8731 209.395 64.0131C209.395 64.1064 209.372 64.2464 209.325 64.4331C209.278 64.5731 209.232 64.6898 209.185 64.7831C209.185 64.8298 209.185 64.9231 209.185 65.0631C209.185 65.1564 209.138 65.2498 209.045 65.3431C208.998 65.4364 208.905 65.5298 208.765 65.6231C208.625 65.6698 208.508 65.7398 208.415 65.8331C207.948 66.1598 207.388 66.3698 206.735 66.4631C206.082 66.5564 205.452 66.5098 204.845 66.3231C203.912 66.0431 203.165 65.5064 202.605 64.7131C202.045 63.9198 201.648 63.0798 201.415 62.1931C201.228 61.4464 201.112 60.6764 201.065 59.8831C201.065 59.0431 201.042 58.2264 200.995 57.4331C200.995 56.3598 200.995 55.1698 200.995 53.8631C200.995 52.5098 201.042 51.3198 201.135 50.2931C201.228 49.4998 201.368 48.6831 201.555 47.8431C201.788 46.9564 202.208 46.2098 202.815 45.6031C203.655 44.6698 204.798 44.2031 206.245 44.2031C206.338 44.2031 206.455 44.2031 206.595 44.2031C206.782 44.2031 206.922 44.2264 207.015 44.2731C207.155 44.3198 207.295 44.4131 207.435 44.5531C207.622 44.6464 207.785 44.7398 207.925 44.8331C208.112 44.9264 208.228 44.9964 208.275 45.0431C208.322 45.0898 208.345 45.1831 208.345 45.3231C208.345 45.4164 208.345 45.5098 208.345 45.6031C208.392 45.8831 208.392 46.1164 208.345 46.3031C208.345 46.4898 208.275 46.7464 208.135 47.0731ZM290.678 42.1731V73.1831C290.678 73.9298 290.678 74.6998 290.678 75.4931C290.678 76.2864 290.562 77.0564 290.328 77.8031C290.002 78.7364 289.488 79.5064 288.788 80.1131C288.135 80.7664 287.435 81.3964 286.688 82.0031C286.082 82.4698 285.498 83.0298 284.938 83.6831C284.425 84.3364 283.772 84.8264 282.978 85.1531C282.605 85.3398 282.185 85.4564 281.718 85.5031C281.298 85.5498 280.878 85.5731 280.458 85.5731C279.665 85.6198 278.848 85.6431 278.008 85.6431C277.168 85.6431 276.352 85.6431 275.558 85.6431C274.952 85.6431 274.345 85.6431 273.738 85.6431C273.132 85.6431 272.502 85.6198 271.848 85.5731C271.522 85.5264 271.148 85.4798 270.728 85.4331C270.355 85.3864 270.005 85.2698 269.678 85.0831C268.652 84.4298 267.905 83.4264 267.438 82.0731C267.018 80.7664 266.528 79.5998 265.968 78.5731C265.735 78.1064 265.455 77.6631 265.128 77.2431C264.802 76.8231 264.522 76.3798 264.288 75.9131C263.822 75.1198 263.518 74.1631 263.378 73.0431C263.285 72.3431 263.238 71.6431 263.238 70.9431C263.238 70.1964 263.238 69.4731 263.238 68.7731C263.238 68.5398 263.215 68.3298 263.168 68.1431C263.168 67.9564 263.145 67.7698 263.098 67.5831C263.098 67.4898 263.098 67.4198 263.098 67.3731C263.145 67.2798 263.145 67.2098 263.098 67.1631C263.052 67.1164 262.912 67.1398 262.678 67.2331C262.492 67.2331 262.375 67.3731 262.328 67.6531C262.282 67.9331 262.212 68.1664 262.118 68.3531C261.838 69.2398 261.512 70.1031 261.138 70.9431C260.812 71.7831 260.392 72.5998 259.878 73.3931C259.178 74.4198 258.385 75.3531 257.498 76.1931C256.658 76.9864 255.772 77.8031 254.838 78.6431C254.465 79.0164 254.068 79.4131 253.648 79.8331C253.275 80.2064 252.902 80.5798 252.528 80.9531C251.922 81.4664 251.292 81.9331 250.638 82.3531C249.985 82.7731 249.308 83.1698 248.608 83.5431C247.908 83.9164 247.022 84.2431 245.948 84.5231C244.922 84.8031 243.872 85.0131 242.798 85.1531C241.725 85.2931 240.838 85.3864 240.138 85.4331C239.532 85.4798 238.902 85.4564 238.248 85.3631C237.595 85.3164 237.012 85.1298 236.498 84.8031C235.565 84.2898 234.912 83.5198 234.538 82.4931C234.165 81.5131 233.792 80.5798 233.418 79.6931C233.092 78.9931 232.718 78.3398 232.298 77.7331C231.925 77.0798 231.552 76.4031 231.178 75.7031C230.945 75.2831 230.758 74.8164 230.618 74.3031C230.478 73.7898 230.362 73.2998 230.268 72.8331C230.175 71.9931 230.128 71.1531 230.128 70.3131C230.128 69.4731 230.128 68.6331 230.128 67.7931C230.175 67.1398 230.222 66.4864 230.268 65.8331C230.315 65.1798 230.455 64.5498 230.688 63.9431C231.015 63.1964 231.482 62.5898 232.088 62.1231C232.648 61.6098 233.185 61.0964 233.698 60.5831C234.725 59.5098 235.495 58.1798 236.008 56.5931C236.335 55.5198 236.568 54.3998 236.708 53.2331C236.848 52.0664 236.942 50.9698 236.988 49.9431C237.082 49.4298 237.128 48.6831 237.128 47.7031C237.175 46.7231 237.198 45.6731 237.198 44.5531C237.198 43.4331 237.198 42.3831 237.198 41.4031C237.198 40.4231 237.198 39.6764 237.198 39.1631C237.198 38.0898 237.175 36.8531 237.128 35.4531C237.082 34.0064 237.152 32.7698 237.338 31.7431C237.432 31.0898 237.618 30.4598 237.898 29.8531C238.178 29.1998 238.622 28.7098 239.228 28.3831C239.368 28.2898 239.508 28.2431 239.648 28.2431C239.835 28.1964 239.998 28.1498 240.138 28.1031C240.838 27.8698 241.562 27.7531 242.308 27.7531C243.102 27.7064 243.872 27.6831 244.618 27.6831H274.298C274.905 27.6831 275.512 27.7064 276.118 27.7531C276.772 27.7531 277.402 27.7998 278.008 27.8931C279.082 28.0798 280.062 28.4298 280.948 28.9431C281.882 29.4564 282.838 29.8998 283.818 30.2731C284.658 30.5998 285.522 30.8798 286.408 31.1131C287.342 31.2998 288.182 31.6731 288.928 32.2331C289.208 32.4198 289.418 32.5831 289.558 32.7231C289.932 33.1898 290.188 33.7498 290.328 34.4031C290.468 35.0098 290.562 35.6164 290.608 36.2231C290.702 37.1564 290.725 38.1131 290.678 39.0931C290.678 40.0731 290.678 41.0998 290.678 42.1731ZM234.678 73.8131C234.678 74.4198 234.702 75.0264 234.748 75.6331C234.795 76.1931 234.912 76.7531 235.098 77.3131C235.145 77.4064 235.192 77.5464 235.238 77.7331C235.285 77.8731 235.332 77.9898 235.378 78.0831L235.938 78.6431C236.032 78.6898 236.125 78.7831 236.218 78.9231C236.312 79.0164 236.405 79.0864 236.498 79.1331C236.592 79.1798 236.708 79.2264 236.848 79.2731C236.988 79.3198 237.105 79.3664 237.198 79.4131C237.898 79.6464 238.622 79.7398 239.368 79.6931C240.115 79.6464 240.838 79.5998 241.538 79.5531C242.052 79.4131 242.915 79.0864 244.128 78.5731C245.342 78.0598 246.648 77.4531 248.048 76.7531C249.448 76.0531 250.755 75.3531 251.968 74.6531C253.182 73.9531 254.045 73.3464 254.558 72.8331C255.212 71.8531 255.748 70.7798 256.168 69.6131C256.588 68.3998 256.915 67.2798 257.148 66.2531C257.382 65.7398 257.568 64.9931 257.708 64.0131C257.848 62.9864 257.965 61.9131 258.058 60.7931C258.152 59.6731 258.222 58.6231 258.268 57.6431C258.315 56.6164 258.362 55.8464 258.408 55.3331C258.455 54.6331 258.478 53.9331 258.478 53.2331C258.478 52.5331 258.502 51.8331 258.548 51.1331C258.548 50.7598 258.548 50.3398 258.548 49.8731C258.548 49.4064 258.595 48.9864 258.688 48.6131C258.782 48.4264 258.875 48.1931 258.968 47.9131C259.108 47.6331 259.225 47.4231 259.318 47.2831C259.412 47.1898 259.528 47.1198 259.668 47.0731C259.808 46.9798 259.902 46.9098 259.948 46.8631C260.042 46.8164 260.135 46.7698 260.228 46.7231C260.368 46.6298 260.485 46.5598 260.578 46.5131C260.672 46.4664 260.788 46.4431 260.928 46.4431C261.068 46.4431 261.208 46.4198 261.348 46.3731C261.722 46.2798 262.095 46.2331 262.468 46.2331C262.842 46.2331 263.192 46.2331 263.518 46.2331C263.938 46.2798 264.335 46.3264 264.708 46.3731C265.082 46.4198 265.432 46.5131 265.758 46.6531C265.852 46.6998 265.968 46.7464 266.108 46.7931C266.248 46.7931 266.365 46.8398 266.458 46.9331C266.552 46.9798 266.622 47.0498 266.668 47.1431C266.715 47.2364 266.762 47.3298 266.808 47.4231C266.902 47.5164 266.995 47.6331 267.088 47.7731C267.228 47.9131 267.322 48.0298 267.368 48.1231C267.462 48.2631 267.508 48.4264 267.508 48.6131C267.508 48.7998 267.532 48.9631 267.578 49.1031C267.812 49.9898 267.905 50.8998 267.858 51.8331C267.812 52.7198 267.788 53.6064 267.788 54.4931V70.9431C267.788 71.6898 267.788 72.4598 267.788 73.2531C267.788 74.0464 267.812 74.8398 267.858 75.6331C267.905 75.9598 267.975 76.3564 268.068 76.8231C268.162 77.2431 268.302 77.6164 268.488 77.9431C268.628 78.1298 268.768 78.2698 268.908 78.3631C269.002 78.5031 269.118 78.6431 269.258 78.7831C269.398 78.9231 269.515 79.0398 269.608 79.1331C269.982 79.3664 270.425 79.5298 270.938 79.6231C271.452 79.6698 271.918 79.7164 272.338 79.7631C272.898 79.8098 273.458 79.8331 274.018 79.8331C274.578 79.8331 275.138 79.8331 275.698 79.8331C276.492 79.8331 277.285 79.8331 278.078 79.8331C278.918 79.8331 279.735 79.8098 280.528 79.7631C280.902 79.7164 281.298 79.6931 281.718 79.6931C282.185 79.6464 282.605 79.5298 282.978 79.3431C283.445 79.1098 283.842 78.8064 284.168 78.4331C284.495 78.0131 284.752 77.5698 284.938 77.1031C285.172 76.4498 285.288 75.7731 285.288 75.0731C285.288 74.3264 285.288 73.6264 285.288 72.9731V42.1731C285.288 41.0998 285.312 39.8631 285.358 38.4631C285.405 37.0164 285.335 35.7798 285.148 34.7531C285.102 34.3798 285.032 34.0764 284.938 33.8431C284.892 33.5631 284.822 33.2598 284.728 32.9331L284.518 32.3731C284.145 31.9998 283.725 31.6731 283.258 31.3931C282.932 31.2064 282.558 31.0898 282.138 31.0431C281.718 30.9964 281.322 30.9498 280.948 30.9031C280.202 30.8098 279.432 30.7864 278.638 30.8331C277.845 30.8331 277.052 30.8331 276.258 30.8331H248.608C247.862 30.8331 247.068 30.8564 246.228 30.9031C245.388 30.9031 244.595 31.0664 243.848 31.3931C243.755 31.4398 243.638 31.4864 243.498 31.5331C243.405 31.5798 243.312 31.6498 243.218 31.7431C243.078 31.7898 242.962 31.9298 242.868 32.1631C242.775 32.3031 242.658 32.4431 242.518 32.5831C242.425 32.6764 242.332 32.7931 242.238 32.9331C242.052 33.2598 241.935 33.6564 241.888 34.1231C241.842 34.5431 241.818 34.9398 241.818 35.3131C241.772 36.3398 241.748 37.5531 241.748 38.9531C241.748 40.3064 241.748 41.5198 241.748 42.5931C241.748 43.2931 241.748 44.3431 241.748 45.7431C241.748 47.1431 241.725 48.5431 241.678 49.9431C241.678 51.3431 241.632 52.3931 241.538 53.0931C241.492 54.1198 241.375 55.2864 241.188 56.5931C241.002 57.8998 240.722 59.0898 240.348 60.1631C239.835 61.6564 239.042 62.9164 237.968 63.9431C237.642 64.2698 237.268 64.5964 236.848 64.9231C236.428 65.2498 236.078 65.6231 235.798 66.0431C235.052 67.0698 234.678 68.3298 234.678 69.8231C234.678 71.3164 234.678 72.6464 234.678 73.8131ZM338.662 76.5431C338.615 77.0098 338.568 77.4998 338.522 78.0131C338.522 78.4798 338.405 78.8998 338.172 79.2731L337.682 79.9031C337.635 79.9498 337.565 80.0198 337.472 80.1131C337.378 80.2531 337.285 80.3698 337.192 80.4631C337.052 80.6031 336.842 80.7198 336.562 80.8131C336.002 81.0931 335.418 81.2564 334.812 81.3031C334.205 81.3964 333.598 81.5598 332.992 81.7931C332.758 81.8398 332.525 81.9331 332.292 82.0731C332.058 82.2131 331.825 82.3298 331.592 82.4231C331.125 82.6564 330.682 82.9131 330.262 83.1931C329.888 83.4731 329.445 83.7064 328.932 83.8931C328.325 84.0798 327.672 84.1964 326.972 84.2431C326.318 84.2898 325.665 84.3131 325.012 84.3131H303.032C302.005 84.3131 300.792 84.3131 299.392 84.3131C298.038 84.3598 296.825 84.3598 295.752 84.3131C295.098 84.2664 294.422 84.1731 293.722 84.0331C293.022 83.9398 292.392 83.6598 291.832 83.1931C291.365 82.7731 290.992 82.2364 290.712 81.5831C290.478 80.9298 290.315 80.2998 290.222 79.6931C290.082 78.9931 289.988 78.1064 289.942 77.0331C289.942 75.9131 289.942 74.8164 289.942 73.7431C289.988 72.6231 290.012 71.7131 290.012 71.0131V41.1931C290.012 40.2598 290.012 39.3498 290.012 38.4631C290.012 37.5298 290.082 36.6198 290.222 35.7331C290.315 34.7998 290.502 33.7731 290.782 32.6531C291.108 31.5331 291.645 30.6698 292.392 30.0631C292.858 29.6898 293.395 29.4331 294.002 29.2931C294.655 29.1064 295.262 28.9898 295.822 28.9431C296.755 28.8031 297.712 28.6864 298.692 28.5931C299.672 28.4998 300.652 28.4531 301.632 28.4531C302.052 28.4531 302.985 28.4531 304.432 28.4531C305.878 28.4531 307.582 28.4531 309.542 28.4531C311.502 28.4531 313.438 28.4531 315.352 28.4531C317.312 28.4531 319.015 28.4531 320.462 28.4531C321.908 28.4531 322.842 28.4531 323.262 28.4531H330.332C331.218 28.4998 332.082 28.6164 332.922 28.8031C333.808 28.9431 334.578 29.3398 335.232 29.9931C335.465 30.2264 335.675 30.5064 335.862 30.8331C336.095 31.1598 336.305 31.4864 336.492 31.8131C336.818 32.3731 337.098 32.9331 337.332 33.4931C337.565 34.0531 337.752 34.6598 337.892 35.3131C338.032 36.0598 338.102 36.8531 338.102 37.6931C338.102 38.5331 338.102 39.3498 338.102 40.1431C338.102 40.7031 338.078 41.2631 338.032 41.8231C338.032 42.3831 337.938 42.9431 337.752 43.5031C337.705 43.5964 337.658 43.7364 337.612 43.9231C337.612 44.0631 337.565 44.1798 337.472 44.2731C337.378 44.4598 337.215 44.6931 336.982 44.9731C336.748 45.2064 336.538 45.3698 336.352 45.4631C336.165 45.6031 335.908 45.7198 335.582 45.8131C335.302 45.9064 335.045 45.9998 334.812 46.0931C334.672 46.1398 334.532 46.1864 334.392 46.2331C334.252 46.2798 334.112 46.3498 333.972 46.4431C333.925 46.4898 333.855 46.5131 333.762 46.5131C333.715 46.5131 333.668 46.5364 333.622 46.5831C333.575 46.6298 333.598 46.6998 333.692 46.7931L333.902 47.5631C334.042 48.1698 334.275 48.7298 334.602 49.2431C334.928 49.7564 335.208 50.2931 335.442 50.8531C335.675 51.3198 335.862 51.8098 336.002 52.3231C336.188 52.7898 336.328 53.2798 336.422 53.7931C336.515 54.3531 336.562 54.9131 336.562 55.4731C336.562 56.0331 336.562 56.5931 336.562 57.1531C336.562 57.5731 336.562 58.0164 336.562 58.4831C336.562 58.9031 336.515 59.3231 336.422 59.7431C336.328 60.3498 336.118 60.9331 335.792 61.4931C335.512 62.0064 335.115 62.4031 334.602 62.6831C334.415 62.8231 334.228 62.9398 334.042 63.0331C333.855 63.1264 333.692 63.2898 333.552 63.5231C333.365 63.7098 333.272 63.8264 333.272 63.8731C333.272 63.9198 333.388 63.9431 333.622 63.9431C333.808 63.9898 333.995 64.0364 334.182 64.0831C334.368 64.0831 334.532 64.1298 334.672 64.2231C335.138 64.4564 335.535 64.7831 335.862 65.2031C336.188 65.5764 336.468 65.9731 336.702 66.3931C337.075 66.9998 337.425 67.6764 337.752 68.4231C338.078 69.1231 338.312 69.8464 338.452 70.5931C338.638 71.4798 338.708 72.4364 338.662 73.4631C338.662 74.4431 338.662 75.4698 338.662 76.5431ZM293.022 38.6731V67.7931C293.022 68.8198 293.022 70.0331 293.022 71.4331C293.022 72.7864 293.045 73.9998 293.092 75.0731C293.138 75.5864 293.208 76.0764 293.302 76.5431C293.395 77.0098 293.582 77.4764 293.862 77.9431C293.955 77.9898 294.025 78.0831 294.072 78.2231C294.165 78.3631 294.235 78.4798 294.282 78.5731C294.375 78.6198 294.468 78.6898 294.562 78.7831C294.702 78.8298 294.818 78.8998 294.912 78.9931C295.005 79.0398 295.098 79.1098 295.192 79.2031C295.332 79.2964 295.472 79.3664 295.612 79.4131C296.032 79.5998 296.475 79.7164 296.942 79.7631C297.408 79.7631 297.875 79.7864 298.342 79.8331C299.042 79.8798 299.928 79.9031 301.002 79.9031C302.075 79.9031 303.148 79.8798 304.222 79.8331C305.342 79.8331 306.252 79.8331 306.952 79.8331H325.572C326.365 79.8331 327.182 79.8331 328.022 79.8331C328.862 79.8331 329.655 79.7164 330.402 79.4831C330.775 79.3431 331.148 79.1798 331.522 78.9931C331.895 78.7598 332.198 78.4798 332.432 78.1531C332.665 77.8264 332.828 77.4531 332.922 77.0331C333.015 76.6131 333.085 76.2164 333.132 75.8431C333.225 75.0498 333.272 74.2098 333.272 73.3231C333.318 72.4364 333.295 71.5964 333.202 70.8031C333.155 70.0564 333.015 69.3331 332.782 68.6331C332.548 67.8864 332.105 67.3031 331.452 66.8831C331.358 66.7898 331.242 66.7431 331.102 66.7431C330.962 66.6964 330.845 66.6498 330.752 66.6031C330.052 66.3698 329.328 66.2531 328.582 66.2531C327.835 66.2064 327.088 66.2064 326.342 66.2531H316.402C315.608 66.2531 314.745 66.2531 313.812 66.2531C312.878 66.2064 312.085 65.9498 311.432 65.4831C311.338 65.3898 311.222 65.2964 311.082 65.2031C310.942 65.1098 310.825 65.0398 310.732 64.9931C310.685 64.8531 310.638 64.6664 310.592 64.4331C310.592 64.1998 310.568 64.0131 310.522 63.8731C310.428 63.6864 310.405 63.5464 310.452 63.4531C310.452 63.4064 310.522 63.3131 310.662 63.1731C310.755 63.0331 310.872 62.8698 311.012 62.6831C311.152 62.4498 311.292 62.2864 311.432 62.1931C311.618 62.0998 311.852 62.0531 312.132 62.0531C312.645 61.9131 313.135 61.8431 313.602 61.8431C314.068 61.7964 314.535 61.7731 315.002 61.7731H324.732C325.385 61.7731 326.015 61.7731 326.622 61.7731C327.228 61.7731 327.835 61.7031 328.442 61.5631C328.582 61.5164 328.745 61.4698 328.932 61.4231C329.118 61.3764 329.258 61.3298 329.352 61.2831C329.445 61.2364 329.538 61.1898 329.632 61.1431C329.725 61.0498 329.795 60.9798 329.842 60.9331C329.935 60.8398 330.052 60.7464 330.192 60.6531C330.378 60.5131 330.495 60.3731 330.542 60.2331C330.635 60.1398 330.682 60.0231 330.682 59.8831C330.682 59.6964 330.705 59.5564 330.752 59.4631C330.892 59.0898 330.985 58.7164 331.032 58.3431C331.078 57.9698 331.125 57.5964 331.172 57.2231C331.218 56.3831 331.242 55.5431 331.242 54.7031C331.242 53.8164 331.172 52.9531 331.032 52.1131C330.985 51.9731 330.962 51.8331 330.962 51.6931C330.962 51.5064 330.915 51.3431 330.822 51.2031C330.775 51.0631 330.705 50.9231 330.612 50.7831C330.518 50.6431 330.425 50.5031 330.332 50.3631C330.285 50.2698 330.238 50.1764 330.192 50.0831C330.145 49.9898 330.075 49.9198 329.982 49.8731C329.888 49.7798 329.772 49.7098 329.632 49.6631C329.492 49.6164 329.375 49.5698 329.282 49.5231C328.815 49.2898 328.325 49.1498 327.812 49.1031C327.345 49.0564 326.855 49.0098 326.342 48.9631C325.315 48.9164 324.078 48.9164 322.632 48.9631C321.185 48.9631 319.925 48.9631 318.852 48.9631H314.582C314.208 48.9631 313.788 48.9631 313.322 48.9631C312.855 48.9164 312.435 48.8231 312.062 48.6831C311.922 48.6364 311.758 48.5664 311.572 48.4731C311.432 48.3331 311.292 48.2164 311.152 48.1231C311.105 48.0764 311.035 48.0531 310.942 48.0531C310.895 48.0064 310.848 47.9598 310.802 47.9131C310.755 47.8198 310.708 47.6798 310.662 47.4931C310.662 47.2598 310.638 47.0964 310.592 47.0031C310.498 46.8164 310.452 46.6298 310.452 46.4431C310.452 46.3498 310.522 46.2331 310.662 46.0931C310.755 45.9531 310.848 45.7898 310.942 45.6031C311.035 45.3698 311.128 45.2298 311.222 45.1831C311.315 45.0898 311.455 45.0198 311.642 44.9731C311.875 44.8798 312.062 44.8098 312.202 44.7631C312.528 44.6231 312.878 44.5531 313.252 44.5531C313.672 44.5064 314.068 44.4831 314.442 44.4831H327.112C327.625 44.4831 328.185 44.4598 328.792 44.4131C329.445 44.3198 330.005 44.1798 330.472 43.9931C330.565 43.9464 330.658 43.8764 330.752 43.7831C330.892 43.6898 331.008 43.6198 331.102 43.5731C331.195 43.4798 331.288 43.4098 331.382 43.3631C331.522 43.3164 331.615 43.2698 331.662 43.2231C331.895 42.9431 332.082 42.6164 332.222 42.2431C332.362 41.8231 332.455 41.4498 332.502 41.1231C332.642 40.4698 332.712 39.7931 332.712 39.0931C332.712 38.3931 332.712 37.7164 332.712 37.0631C332.712 36.5031 332.688 35.9431 332.642 35.3831C332.642 34.8231 332.548 34.2631 332.362 33.7031C332.362 33.5164 332.315 33.2831 332.222 33.0031C331.755 32.1164 331.008 31.4864 329.982 31.1131C329.795 31.0664 329.608 31.0431 329.422 31.0431C329.235 31.0431 329.048 31.0198 328.862 30.9731C328.302 30.8798 327.742 30.8331 327.182 30.8331C326.622 30.8331 326.062 30.8331 325.502 30.8331H301.842C301.002 30.8331 300.138 30.8331 299.252 30.8331C298.412 30.7864 297.595 30.8331 296.802 30.9731C296.428 31.0198 296.032 31.1131 295.612 31.2531C295.192 31.3464 294.818 31.5331 294.492 31.8131C294.212 31.9998 293.978 32.2798 293.792 32.6531C293.605 33.0264 293.465 33.3764 293.372 33.7031C293.185 34.4498 293.068 35.2431 293.022 36.0831C293.022 36.9231 293.022 37.7864 293.022 38.6731ZM397.289 71.9931C396.963 72.6464 396.613 73.2998 396.239 73.9531C395.913 74.6064 395.493 75.2364 394.979 75.8431C394.186 76.7764 393.299 77.5931 392.319 78.2931C391.899 78.7131 391.036 79.1098 389.729 79.4831C388.423 79.8564 386.906 80.2064 385.179 80.5331C383.453 80.8598 381.703 81.1398 379.929 81.3731C378.203 81.6064 376.686 81.7698 375.379 81.8631C374.073 82.0031 373.209 82.0731 372.789 82.0731H359.559C358.906 82.0731 358.229 82.0498 357.529 82.0031C356.876 81.9564 356.246 81.8164 355.639 81.5831C354.986 81.3498 354.356 81.0231 353.749 80.6031C353.189 80.2298 352.583 79.8798 351.929 79.5531C351.463 79.3198 350.926 79.1098 350.319 78.9231C349.759 78.6898 349.269 78.3631 348.849 77.9431C348.383 77.4764 348.056 76.9164 347.869 76.2631C347.636 75.5631 347.473 74.8864 347.379 74.2331C347.239 73.1598 347.193 71.8764 347.239 70.3831C347.239 68.8898 347.239 67.6298 347.239 66.6031V36.1531C347.239 35.4531 347.263 34.7298 347.309 33.9831C347.309 33.2364 347.403 32.5364 347.589 31.8831C347.916 31.1831 348.616 30.5064 349.689 29.8531C350.763 29.1531 351.906 28.5698 353.119 28.1031C354.333 27.5898 355.289 27.3098 355.989 27.2631C357.063 27.2164 358.416 27.2164 360.049 27.2631C361.683 27.2631 363.013 27.2631 364.039 27.2631H378.599C379.673 27.2631 380.769 27.2631 381.889 27.2631C383.009 27.2164 384.083 27.2164 385.109 27.2631C385.763 27.3098 386.439 27.3798 387.139 27.4731C387.839 27.5198 388.493 27.7064 389.099 28.0331C389.706 28.3131 390.219 28.7098 390.639 29.2231C391.106 29.7364 391.526 30.2498 391.899 30.7631C392.413 31.4631 392.879 32.2098 393.299 33.0031C393.766 33.7964 394.093 34.6131 394.279 35.4531C394.513 36.2931 394.629 37.1564 394.629 38.0431C394.629 38.9298 394.629 39.8164 394.629 40.7031C394.629 41.4031 394.606 42.1264 394.559 42.8731C394.513 43.6198 394.349 44.3198 394.069 44.9731C394.023 45.0664 393.976 45.1831 393.929 45.3231C393.883 45.4631 393.813 45.5798 393.719 45.6731C393.393 46.1398 392.973 46.4898 392.459 46.7231C391.993 46.9098 391.503 47.0964 390.989 47.2831C390.849 47.3298 390.686 47.3764 390.499 47.4231C390.359 47.4698 390.219 47.5398 390.079 47.6331C389.893 47.6331 389.776 47.6564 389.729 47.7031C389.636 47.7964 389.566 47.9598 389.519 48.1931C389.473 48.3798 389.403 48.5431 389.309 48.6831C389.309 48.6831 389.286 48.7064 389.239 48.7531C389.239 48.7531 389.239 48.7764 389.239 48.8231C389.333 49.0098 389.449 49.1731 389.589 49.3131L390.429 50.3631C391.409 51.4364 392.273 52.5331 393.019 53.6531C393.719 54.6798 394.443 55.7998 395.189 57.0131C395.983 58.1798 396.636 59.2998 397.149 60.3731C397.523 60.8864 397.803 61.6798 397.989 62.7531C398.176 63.7798 398.269 64.8998 398.269 66.1131C398.316 67.3264 398.246 68.4698 398.059 69.5431C397.919 70.6164 397.663 71.4331 397.289 71.9931ZM384.409 30.8331H358.439C357.973 30.8331 357.506 30.8564 357.039 30.9031C356.619 30.9031 356.176 30.9731 355.709 31.1131C355.336 31.2064 354.939 31.3464 354.519 31.5331C354.146 31.7198 353.843 31.9998 353.609 32.3731C353.283 32.8398 353.049 33.3764 352.909 33.9831C352.816 34.5898 352.746 35.1731 352.699 35.7331V64.0831C352.699 65.1098 352.676 66.2764 352.629 67.5831C352.629 68.8898 352.653 70.0798 352.699 71.1531C352.746 71.3398 352.746 71.5731 352.699 71.8531C352.699 72.1331 352.723 72.3664 352.769 72.5531L353.329 73.1131C353.376 73.1598 353.423 73.2531 353.469 73.3931C353.563 73.4864 353.633 73.5331 353.679 73.5331C353.773 73.5331 353.913 73.4864 354.099 73.3931C354.333 73.2998 354.543 73.2064 354.729 73.1131C354.963 72.9731 355.173 72.8098 355.359 72.6231C355.966 71.9698 356.526 71.3164 357.039 70.6631C357.599 69.9631 358.159 69.2864 358.719 68.6331C359.233 68.1198 359.933 67.3031 360.819 66.1831C361.706 65.0631 362.616 63.8731 363.549 62.6131C364.529 61.3531 365.463 60.1631 366.349 59.0431C367.236 57.9231 367.936 57.1064 368.449 56.5931C368.963 55.9398 369.453 55.3331 369.919 54.7731C370.386 54.1664 370.853 53.5598 371.319 52.9531C371.506 52.7198 371.669 52.4864 371.809 52.2531C371.996 52.0198 372.159 51.7864 372.299 51.5531C372.393 51.4598 372.463 51.3664 372.509 51.2731C372.603 51.1331 372.649 51.0164 372.649 50.9231C372.743 50.7364 372.766 50.5498 372.719 50.3631C372.719 50.1764 372.719 49.9898 372.719 49.8031C372.766 49.7098 372.789 49.5931 372.789 49.4531C372.743 49.3131 372.649 49.1731 372.509 49.0331C372.416 48.8931 372.323 48.7764 372.229 48.6831C372.043 48.4498 371.879 48.2398 371.739 48.0531C371.646 47.8198 371.553 47.5864 371.459 47.3531C371.413 47.3064 371.343 47.2364 371.249 47.1431C371.203 47.0031 371.203 46.9098 371.249 46.8631C371.249 46.7698 371.296 46.6531 371.389 46.5131C371.529 46.3264 371.623 46.2098 371.669 46.1631C371.716 46.0698 371.763 45.9764 371.809 45.8831C371.856 45.7898 371.903 45.7198 371.949 45.6731C372.089 45.5798 372.276 45.5331 372.509 45.5331C372.743 45.4864 372.929 45.4398 373.069 45.3931C373.676 45.2064 374.283 45.1364 374.889 45.1831C375.543 45.1831 376.173 45.1831 376.779 45.1831H386.649C387.349 45.1831 388.049 45.1598 388.749 45.1131C389.449 45.0664 390.103 44.8798 390.709 44.5531C390.803 44.4598 390.919 44.3898 391.059 44.3431C391.199 44.2964 391.293 44.2498 391.339 44.2031C391.713 43.9231 391.969 43.5731 392.109 43.1531C392.296 42.7331 392.436 42.3364 392.529 41.9631C392.669 41.3098 392.739 40.6564 392.739 40.0031C392.739 39.3031 392.739 38.6498 392.739 38.0431C392.739 37.3898 392.739 36.7364 392.739 36.0831C392.786 35.3831 392.739 34.7298 392.599 34.1231C392.506 33.5631 392.343 33.0964 392.109 32.7231C392.063 32.5831 391.969 32.4664 391.829 32.3731C391.736 32.2331 391.643 32.1164 391.549 32.0231C391.503 31.9298 391.433 31.8598 391.339 31.8131C391.293 31.7198 391.223 31.6498 391.129 31.6031C391.036 31.5098 390.896 31.4398 390.709 31.3931C390.523 31.3464 390.359 31.2998 390.219 31.2531C389.333 30.9264 388.376 30.7864 387.349 30.8331C386.369 30.8331 385.389 30.8331 384.409 30.8331ZM385.669 78.4331C386.603 78.0598 387.536 77.6631 388.469 77.2431C389.403 76.7764 390.243 76.2398 390.989 75.6331C391.503 75.1198 392.086 74.2798 392.739 73.1131C393.393 71.9464 393.999 70.6864 394.559 69.3331C395.166 67.9798 395.633 66.7198 395.959 65.5531C396.333 64.3864 396.473 63.5464 396.379 63.0331C396.333 62.3331 396.053 61.3531 395.539 60.0931C395.073 58.7864 394.489 57.5031 393.789 56.2431C393.136 54.9831 392.459 54.0031 391.759 53.3031C390.919 52.5098 389.963 51.8564 388.889 51.3431C387.863 50.7831 386.813 50.3398 385.739 50.0131C385.086 49.7798 384.386 49.5698 383.639 49.3831C382.893 49.1498 382.146 49.0564 381.399 49.1031C381.259 49.1031 381.096 49.1031 380.909 49.1031C380.769 49.1031 380.629 49.1264 380.489 49.1731C379.836 49.3131 379.253 49.6164 378.739 50.0831C378.226 50.5498 377.759 51.0398 377.339 51.5531C376.686 52.2998 376.033 53.0931 375.379 53.9331C374.773 54.7264 374.143 55.5198 373.489 56.3131C373.303 56.4998 373.093 56.7564 372.859 57.0831C372.673 57.3631 372.533 57.6198 372.439 57.8531C372.393 57.9464 372.369 58.0864 372.369 58.2731C372.369 58.4131 372.369 58.5298 372.369 58.6231C372.369 58.6698 372.346 58.7864 372.299 58.9731C372.253 59.1598 372.253 59.2998 372.299 59.3931C372.346 59.4398 372.463 59.5098 372.649 59.6031C372.836 59.6964 372.953 59.7664 372.999 59.8131L373.699 60.2331C373.933 60.3264 374.166 60.3964 374.399 60.4431C374.679 60.4898 374.936 60.5598 375.169 60.6531C375.403 60.6998 375.636 60.7931 375.869 60.9331C376.103 61.0264 376.313 61.1431 376.499 61.2831C376.593 61.3764 376.686 61.5164 376.779 61.7031C376.919 61.8431 377.036 61.9831 377.129 62.1231C377.176 62.1698 377.223 62.2398 377.269 62.3331C377.363 62.4264 377.433 62.5198 377.479 62.6131C377.573 62.7064 377.619 62.8464 377.619 63.0331C377.619 63.1731 377.619 63.2898 377.619 63.3831C377.713 63.6631 377.759 63.9198 377.759 64.1531C377.666 65.1331 377.223 65.9964 376.429 66.7431C376.383 66.7898 376.289 66.8364 376.149 66.8831C376.009 66.9298 375.893 66.9764 375.799 67.0231C375.193 67.3498 374.493 67.5598 373.699 67.6531C372.953 67.6998 372.276 67.5364 371.669 67.1631C371.576 67.0698 371.459 66.9998 371.319 66.9531C371.179 66.8598 371.063 66.7664 370.969 66.6731C370.923 66.6264 370.876 66.5564 370.829 66.4631C370.783 66.3231 370.736 66.2298 370.689 66.1831L370.059 64.6431C370.059 64.5498 370.036 64.4098 369.989 64.2231C369.989 64.0364 369.943 63.9198 369.849 63.8731C369.803 63.7798 369.733 63.7098 369.639 63.6631C369.546 63.6164 369.453 63.5698 369.359 63.5231C369.313 63.4764 369.219 63.3831 369.079 63.2431C368.939 63.1031 368.823 63.0331 368.729 63.0331C368.683 63.0331 368.636 63.0564 368.589 63.1031C368.543 63.1498 368.473 63.1964 368.379 63.2431C368.239 63.3364 368.076 63.4298 367.889 63.5231C367.749 63.6164 367.609 63.7331 367.469 63.8731C367.283 64.0598 367.096 64.2698 366.909 64.5031C366.723 64.6898 366.536 64.8998 366.349 65.1331L364.389 67.6531C363.363 68.6798 362.336 69.9164 361.309 71.3631C360.329 72.8098 359.349 74.0698 358.369 75.1431C358.089 75.4698 357.809 75.8198 357.529 76.1931C357.296 76.5664 357.063 76.9631 356.829 77.3831C356.783 77.4298 356.713 77.5464 356.619 77.7331C356.526 77.8731 356.479 77.9898 356.479 78.0831C356.479 78.1764 356.503 78.2931 356.549 78.4331C356.643 78.5731 356.713 78.6898 356.759 78.7831C356.806 78.8298 356.829 78.9464 356.829 79.1331C356.876 79.2731 356.923 79.3898 356.969 79.4831C357.063 79.5298 357.156 79.5531 357.249 79.5531C357.389 79.5531 357.483 79.5764 357.529 79.6231C357.763 79.6698 357.996 79.7164 358.229 79.7631C358.509 79.8098 358.766 79.8331 358.999 79.8331H372.579C373.279 79.8331 374.143 79.8331 375.169 79.8331C376.243 79.8331 377.293 79.8098 378.319 79.7631C379.346 79.7164 380.209 79.6231 380.909 79.4831C382.356 79.2964 383.943 78.9464 385.669 78.4331ZM372.579 63.2431C372.533 63.2898 372.486 63.3131 372.439 63.3131C372.393 63.3131 372.323 63.3364 372.229 63.3831C372.229 63.3831 372.183 63.3831 372.089 63.3831C372.043 63.3831 372.043 63.4064 372.089 63.4531C372.136 63.4531 372.229 63.4298 372.369 63.3831C372.556 63.2898 372.626 63.2431 372.579 63.2431ZM445.371 76.5431C445.324 77.0098 445.277 77.4998 445.231 78.0131C445.231 78.4798 445.114 78.8998 444.881 79.2731L444.391 79.9031C444.344 79.9498 444.274 80.0198 444.181 80.1131C444.087 80.2531 443.994 80.3698 443.901 80.4631C443.761 80.6031 443.551 80.7198 443.271 80.8131C442.711 81.0931 442.127 81.2564 441.521 81.3031C440.914 81.3964 440.307 81.5598 439.701 81.7931C439.467 81.8398 439.234 81.9331 439.001 82.0731C438.767 82.2131 438.534 82.3298 438.301 82.4231C437.834 82.6564 437.391 82.9131 436.971 83.1931C436.597 83.4731 436.154 83.7064 435.641 83.8931C435.034 84.0798 434.381 84.1964 433.681 84.2431C433.027 84.2898 432.374 84.3131 431.721 84.3131H409.741C408.714 84.3131 407.501 84.3131 406.101 84.3131C404.747 84.3598 403.534 84.3598 402.461 84.3131C401.807 84.2664 401.131 84.1731 400.431 84.0331C399.731 83.9398 399.101 83.6598 398.541 83.1931C398.074 82.7731 397.701 82.2364 397.421 81.5831C397.187 80.9298 397.024 80.2998 396.931 79.6931C396.791 78.9931 396.697 78.1064 396.651 77.0331C396.651 75.9131 396.651 74.8164 396.651 73.7431C396.697 72.6231 396.721 71.7131 396.721 71.0131V41.1931C396.721 40.2598 396.721 39.3498 396.721 38.4631C396.721 37.5298 396.791 36.6198 396.931 35.7331C397.024 34.7998 397.211 33.7731 397.491 32.6531C397.817 31.5331 398.354 30.6698 399.101 30.0631C399.567 29.6898 400.104 29.4331 400.711 29.2931C401.364 29.1064 401.971 28.9898 402.531 28.9431C403.464 28.8031 404.421 28.6864 405.401 28.5931C406.381 28.4998 407.361 28.4531 408.341 28.4531C408.761 28.4531 409.694 28.4531 411.141 28.4531C412.587 28.4531 414.291 28.4531 416.251 28.4531C418.211 28.4531 420.147 28.4531 422.061 28.4531C424.021 28.4531 425.724 28.4531 427.171 28.4531C428.617 28.4531 429.551 28.4531 429.971 28.4531H437.041C437.927 28.4998 438.791 28.6164 439.631 28.8031C440.517 28.9431 441.287 29.3398 441.941 29.9931C442.174 30.2264 442.384 30.5064 442.571 30.8331C442.804 31.1598 443.014 31.4864 443.201 31.8131C443.527 32.3731 443.807 32.9331 444.041 33.4931C444.274 34.0531 444.461 34.6598 444.601 35.3131C444.741 36.0598 444.811 36.8531 444.811 37.6931C444.811 38.5331 444.811 39.3498 444.811 40.1431C444.811 40.7031 444.787 41.2631 444.741 41.8231C444.741 42.3831 444.647 42.9431 444.461 43.5031C444.414 43.5964 444.367 43.7364 444.321 43.9231C444.321 44.0631 444.274 44.1798 444.181 44.2731C444.087 44.4598 443.924 44.6931 443.691 44.9731C443.457 45.2064 443.247 45.3698 443.061 45.4631C442.874 45.6031 442.617 45.7198 442.291 45.8131C442.011 45.9064 441.754 45.9998 441.521 46.0931C441.381 46.1398 441.241 46.1864 441.101 46.2331C440.961 46.2798 440.821 46.3498 440.681 46.4431C440.634 46.4898 440.564 46.5131 440.471 46.5131C440.424 46.5131 440.377 46.5364 440.331 46.5831C440.284 46.6298 440.307 46.6998 440.401 46.7931L440.611 47.5631C440.751 48.1698 440.984 48.7298 441.311 49.2431C441.637 49.7564 441.917 50.2931 442.151 50.8531C442.384 51.3198 442.571 51.8098 442.711 52.3231C442.897 52.7898 443.037 53.2798 443.131 53.7931C443.224 54.3531 443.271 54.9131 443.271 55.4731C443.271 56.0331 443.271 56.5931 443.271 57.1531C443.271 57.5731 443.271 58.0164 443.271 58.4831C443.271 58.9031 443.224 59.3231 443.131 59.7431C443.037 60.3498 442.827 60.9331 442.501 61.4931C442.221 62.0064 441.824 62.4031 441.311 62.6831C441.124 62.8231 440.937 62.9398 440.751 63.0331C440.564 63.1264 440.401 63.2898 440.261 63.5231C440.074 63.7098 439.981 63.8264 439.981 63.8731C439.981 63.9198 440.097 63.9431 440.331 63.9431C440.517 63.9898 440.704 64.0364 440.891 64.0831C441.077 64.0831 441.241 64.1298 441.381 64.2231C441.847 64.4564 442.244 64.7831 442.571 65.2031C442.897 65.5764 443.177 65.9731 443.411 66.3931C443.784 66.9998 444.134 67.6764 444.461 68.4231C444.787 69.1231 445.021 69.8464 445.161 70.5931C445.347 71.4798 445.417 72.4364 445.371 73.4631C445.371 74.4431 445.371 75.4698 445.371 76.5431ZM399.731 38.6731V67.7931C399.731 68.8198 399.731 70.0331 399.731 71.4331C399.731 72.7864 399.754 73.9998 399.801 75.0731C399.847 75.5864 399.917 76.0764 400.011 76.5431C400.104 77.0098 400.291 77.4764 400.571 77.9431C400.664 77.9898 400.734 78.0831 400.781 78.2231C400.874 78.3631 400.944 78.4798 400.991 78.5731C401.084 78.6198 401.177 78.6898 401.271 78.7831C401.411 78.8298 401.527 78.8998 401.621 78.9931C401.714 79.0398 401.807 79.1098 401.901 79.2031C402.041 79.2964 402.181 79.3664 402.321 79.4131C402.741 79.5998 403.184 79.7164 403.651 79.7631C404.117 79.7631 404.584 79.7864 405.051 79.8331C405.751 79.8798 406.637 79.9031 407.711 79.9031C408.784 79.9031 409.857 79.8798 410.931 79.8331C412.051 79.8331 412.961 79.8331 413.661 79.8331H432.281C433.074 79.8331 433.891 79.8331 434.731 79.8331C435.571 79.8331 436.364 79.7164 437.111 79.4831C437.484 79.3431 437.857 79.1798 438.231 78.9931C438.604 78.7598 438.907 78.4798 439.141 78.1531C439.374 77.8264 439.537 77.4531 439.631 77.0331C439.724 76.6131 439.794 76.2164 439.841 75.8431C439.934 75.0498 439.981 74.2098 439.981 73.3231C440.027 72.4364 440.004 71.5964 439.911 70.8031C439.864 70.0564 439.724 69.3331 439.491 68.6331C439.257 67.8864 438.814 67.3031 438.161 66.8831C438.067 66.7898 437.951 66.7431 437.811 66.7431C437.671 66.6964 437.554 66.6498 437.461 66.6031C436.761 66.3698 436.037 66.2531 435.291 66.2531C434.544 66.2064 433.797 66.2064 433.051 66.2531H423.111C422.317 66.2531 421.454 66.2531 420.521 66.2531C419.587 66.2064 418.794 65.9498 418.141 65.4831C418.047 65.3898 417.931 65.2964 417.791 65.2031C417.651 65.1098 417.534 65.0398 417.441 64.9931C417.394 64.8531 417.347 64.6664 417.301 64.4331C417.301 64.1998 417.277 64.0131 417.231 63.8731C417.137 63.6864 417.114 63.5464 417.161 63.4531C417.161 63.4064 417.231 63.3131 417.371 63.1731C417.464 63.0331 417.581 62.8698 417.721 62.6831C417.861 62.4498 418.001 62.2864 418.141 62.1931C418.327 62.0998 418.561 62.0531 418.841 62.0531C419.354 61.9131 419.844 61.8431 420.311 61.8431C420.777 61.7964 421.244 61.7731 421.711 61.7731H431.441C432.094 61.7731 432.724 61.7731 433.331 61.7731C433.937 61.7731 434.544 61.7031 435.151 61.5631C435.291 61.5164 435.454 61.4698 435.641 61.4231C435.827 61.3764 435.967 61.3298 436.061 61.2831C436.154 61.2364 436.247 61.1898 436.341 61.1431C436.434 61.0498 436.504 60.9798 436.551 60.9331C436.644 60.8398 436.761 60.7464 436.901 60.6531C437.087 60.5131 437.204 60.3731 437.251 60.2331C437.344 60.1398 437.391 60.0231 437.391 59.8831C437.391 59.6964 437.414 59.5564 437.461 59.4631C437.601 59.0898 437.694 58.7164 437.741 58.3431C437.787 57.9698 437.834 57.5964 437.881 57.2231C437.927 56.3831 437.951 55.5431 437.951 54.7031C437.951 53.8164 437.881 52.9531 437.741 52.1131C437.694 51.9731 437.671 51.8331 437.671 51.6931C437.671 51.5064 437.624 51.3431 437.531 51.2031C437.484 51.0631 437.414 50.9231 437.321 50.7831C437.227 50.6431 437.134 50.5031 437.041 50.3631C436.994 50.2698 436.947 50.1764 436.901 50.0831C436.854 49.9898 436.784 49.9198 436.691 49.8731C436.597 49.7798 436.481 49.7098 436.341 49.6631C436.201 49.6164 436.084 49.5698 435.991 49.5231C435.524 49.2898 435.034 49.1498 434.521 49.1031C434.054 49.0564 433.564 49.0098 433.051 48.9631C432.024 48.9164 430.787 48.9164 429.341 48.9631C427.894 48.9631 426.634 48.9631 425.561 48.9631H421.291C420.917 48.9631 420.497 48.9631 420.031 48.9631C419.564 48.9164 419.144 48.8231 418.771 48.6831C418.631 48.6364 418.467 48.5664 418.281 48.4731C418.141 48.3331 418.001 48.2164 417.861 48.1231C417.814 48.0764 417.744 48.0531 417.651 48.0531C417.604 48.0064 417.557 47.9598 417.511 47.9131C417.464 47.8198 417.417 47.6798 417.371 47.4931C417.371 47.2598 417.347 47.0964 417.301 47.0031C417.207 46.8164 417.161 46.6298 417.161 46.4431C417.161 46.3498 417.231 46.2331 417.371 46.0931C417.464 45.9531 417.557 45.7898 417.651 45.6031C417.744 45.3698 417.837 45.2298 417.931 45.1831C418.024 45.0898 418.164 45.0198 418.351 44.9731C418.584 44.8798 418.771 44.8098 418.911 44.7631C419.237 44.6231 419.587 44.5531 419.961 44.5531C420.381 44.5064 420.777 44.4831 421.151 44.4831H433.821C434.334 44.4831 434.894 44.4598 435.501 44.4131C436.154 44.3198 436.714 44.1798 437.181 43.9931C437.274 43.9464 437.367 43.8764 437.461 43.7831C437.601 43.6898 437.717 43.6198 437.811 43.5731C437.904 43.4798 437.997 43.4098 438.091 43.3631C438.231 43.3164 438.324 43.2698 438.371 43.2231C438.604 42.9431 438.791 42.6164 438.931 42.2431C439.071 41.8231 439.164 41.4498 439.211 41.1231C439.351 40.4698 439.421 39.7931 439.421 39.0931C439.421 38.3931 439.421 37.7164 439.421 37.0631C439.421 36.5031 439.397 35.9431 439.351 35.3831C439.351 34.8231 439.257 34.2631 439.071 33.7031C439.071 33.5164 439.024 33.2831 438.931 33.0031C438.464 32.1164 437.717 31.4864 436.691 31.1131C436.504 31.0664 436.317 31.0431 436.131 31.0431C435.944 31.0431 435.757 31.0198 435.571 30.9731C435.011 30.8798 434.451 30.8331 433.891 30.8331C433.331 30.8331 432.771 30.8331 432.211 30.8331H408.551C407.711 30.8331 406.847 30.8331 405.961 30.8331C405.121 30.7864 404.304 30.8331 403.511 30.9731C403.137 31.0198 402.741 31.1131 402.321 31.2531C401.901 31.3464 401.527 31.5331 401.201 31.8131C400.921 31.9998 400.687 32.2798 400.501 32.6531C400.314 33.0264 400.174 33.3764 400.081 33.7031C399.894 34.4498 399.777 35.2431 399.731 36.0831C399.731 36.9231 399.731 37.7864 399.731 38.6731ZM494.44 58.4131C494.813 59.4398 495 60.6298 495 61.9831C495.047 63.3364 494.977 64.5498 494.79 65.6231C494.697 66.4164 494.557 67.2331 494.37 68.0731C494.23 68.8664 494.02 69.6831 493.74 70.5231C493.507 71.2231 493.203 71.9231 492.83 72.6231C492.503 73.2764 492.107 73.9064 491.64 74.5131C490.94 75.2131 490.053 75.9131 488.98 76.6131C487.953 77.3131 486.903 77.9664 485.83 78.5731C484.803 79.1331 483.94 79.5998 483.24 79.9731C482.82 80.3931 481.91 80.7198 480.51 80.9531C479.157 81.1864 477.57 81.3498 475.75 81.4431C473.93 81.5831 472.11 81.6531 470.29 81.6531C468.47 81.6531 466.86 81.6064 465.46 81.5131C464.107 81.4198 463.22 81.3264 462.8 81.2331C462.287 81.1398 461.307 80.8831 459.86 80.4631C458.46 80.0898 456.897 79.6464 455.17 79.1331C453.443 78.5731 451.857 77.9898 450.41 77.3831C449.01 76.7764 448.053 76.2164 447.54 75.7031C446.747 74.9098 446 74.0231 445.3 73.0431C444.647 72.0631 444.157 71.0598 443.83 70.0331C443.737 69.6598 443.643 69.2631 443.55 68.8431C443.503 68.4231 443.503 68.0031 443.55 67.5831C443.643 66.8831 443.877 66.2298 444.25 65.6231C444.67 65.0164 445.067 64.4331 445.44 63.8731C445.72 63.4064 446.07 62.9631 446.49 62.5431C446.91 62.0764 447.353 61.7031 447.82 61.4231C448.753 60.9098 449.757 60.6531 450.83 60.6531C451.95 60.6531 453.023 60.6064 454.05 60.5131C454.423 60.4664 454.773 60.4198 455.1 60.3731C455.427 60.3264 455.753 60.2564 456.08 60.1631L456.64 59.9531C456.78 59.8598 456.943 59.6731 457.13 59.3931C457.223 59.2998 457.317 59.2064 457.41 59.1131C457.55 59.0198 457.643 58.9498 457.69 58.9031C457.783 58.7631 457.83 58.6231 457.83 58.4831C457.83 58.3431 457.853 58.2031 457.9 58.0631C458.133 57.5031 458.25 56.9198 458.25 56.3131C458.25 55.7064 458.273 55.0998 458.32 54.4931C458.367 54.0264 458.437 53.5831 458.53 53.1631C458.623 52.6964 458.74 52.2298 458.88 51.7631C458.973 51.5298 459.09 51.2964 459.23 51.0631C459.417 50.7831 459.557 50.5031 459.65 50.2231C459.697 50.1298 459.72 50.0131 459.72 49.8731C459.72 49.7331 459.743 49.6164 459.79 49.5231C459.837 49.4298 459.883 49.2898 459.93 49.1031C459.977 48.9164 459.977 48.7998 459.93 48.7531C459.93 48.6598 459.86 48.5664 459.72 48.4731C459.58 48.3331 459.463 48.2398 459.37 48.1931C459.323 48.1464 459.253 48.0998 459.16 48.0531C459.113 47.9598 459.043 47.8898 458.95 47.8431C458.857 47.7964 458.74 47.7731 458.6 47.7731C458.46 47.7731 458.343 47.7498 458.25 47.7031C457.83 47.6098 457.41 47.5631 456.99 47.5631C456.617 47.5631 456.22 47.5631 455.8 47.5631C454.773 47.5631 453.607 47.5398 452.3 47.4931C450.993 47.3998 449.803 47.3064 448.73 47.2131C448.263 47.1664 447.82 47.1198 447.4 47.0731C446.98 47.0264 446.56 46.9331 446.14 46.7931C445.86 46.7931 445.603 46.7231 445.37 46.5831C445.323 46.5364 445.253 46.4898 445.16 46.4431C445.113 46.3498 445.043 46.2798 444.95 46.2331C444.857 46.1398 444.74 46.0464 444.6 45.9531C444.46 45.8131 444.343 45.6731 444.25 45.5331C444.203 45.4398 444.18 45.3464 444.18 45.2531C444.18 45.1131 444.157 45.0198 444.11 44.9731C444.063 44.8331 444.017 44.6931 443.97 44.5531C443.923 44.4131 443.9 44.2731 443.9 44.1331C443.853 43.8998 443.853 43.6431 443.9 43.3631C443.993 43.0831 444.063 42.8498 444.11 42.6631C444.39 41.5898 444.903 40.4931 445.65 39.3731C446.397 38.2064 447.12 37.1331 447.82 36.1531C448.8 35.0798 449.92 33.9131 451.18 32.6531C452.44 31.3464 453.583 30.2964 454.61 29.5031C455.31 28.8964 456.313 28.4064 457.62 28.0331C458.927 27.6598 460.21 27.3564 461.47 27.1231C462.777 26.8431 463.78 26.6564 464.48 26.5631C465.18 26.4231 466.207 26.3298 467.56 26.2831C468.913 26.2364 470.243 26.2598 471.55 26.3531C472.903 26.3998 473.93 26.5398 474.63 26.7731C475.61 26.9131 476.567 27.1231 477.5 27.4031C478.48 27.6364 479.437 27.9164 480.37 28.2431C481.07 28.5698 481.957 28.9431 483.03 29.3631C484.103 29.7831 485.177 30.2498 486.25 30.7631C487.323 31.2764 488.21 31.8831 488.91 32.5831C489.61 33.2364 490.287 34.0764 490.94 35.1031C491.593 36.0831 492.153 37.0631 492.62 38.0431C493.133 39.0231 493.46 39.8631 493.6 40.5631C493.74 41.5898 493.763 42.6164 493.67 43.6431C493.577 44.6698 493.413 45.6964 493.18 46.7231C493.087 47.2831 492.97 47.8664 492.83 48.4731C492.69 49.0331 492.55 49.5931 492.41 50.1531C492.317 50.5731 492.223 51.0164 492.13 51.4831C492.083 51.9031 492.083 52.3464 492.13 52.8131C492.223 53.7931 492.55 54.7498 493.11 55.6831C493.67 56.5698 494.113 57.4798 494.44 58.4131ZM490.45 65.9731C490.497 65.3198 490.497 64.6664 490.45 64.0131C490.403 63.3131 490.287 62.6598 490.1 62.0531C489.773 60.5598 489.12 59.1364 488.14 57.7831C487.86 57.4098 487.533 57.0364 487.16 56.6631C486.787 56.2431 486.483 55.7998 486.25 55.3331C486.203 55.2398 486.157 55.1231 486.11 54.9831C486.11 54.8431 486.087 54.7264 486.04 54.6331C485.993 54.5398 485.947 54.4231 485.9 54.2831C485.853 54.1431 485.83 54.0264 485.83 53.9331C485.83 53.8398 485.853 53.7231 485.9 53.5831C485.947 53.3964 485.993 53.2564 486.04 53.1631C486.227 52.5098 486.507 51.9264 486.88 51.4131C487.253 50.8998 487.58 50.3631 487.86 49.8031C488.513 48.7298 488.91 47.4464 489.05 45.9531C489.19 44.4131 489.097 43.1298 488.77 42.1031C488.49 41.5898 487.977 40.9131 487.23 40.0731C486.483 39.1864 485.643 38.2531 484.71 37.2731C483.777 36.2931 482.867 35.4064 481.98 34.6131C481.14 33.7731 480.463 33.1198 479.95 32.6531C479.53 32.2331 478.783 31.8831 477.71 31.6031C476.637 31.2764 475.423 31.0198 474.07 30.8331C472.717 30.5998 471.34 30.4364 469.94 30.3431C468.587 30.2498 467.373 30.2031 466.3 30.2031C465.227 30.2031 464.48 30.2498 464.06 30.3431C463.36 30.4364 462.38 30.5764 461.12 30.7631C459.86 30.9498 458.577 31.2064 457.27 31.5331C456.01 31.8598 455.03 32.2798 454.33 32.7931C453.63 33.3531 452.743 34.1464 451.67 35.1731C450.643 36.1998 449.64 37.2498 448.66 38.3231C447.68 39.3498 446.98 40.2131 446.56 40.9131C446.467 41.2398 446.35 41.6364 446.21 42.1031C446.07 42.5231 446.023 42.9198 446.07 43.2931C446.07 43.4331 446.093 43.5731 446.14 43.7131C446.187 43.8531 446.233 43.9698 446.28 44.0631C446.327 44.1564 446.35 44.2731 446.35 44.4131C446.397 44.5531 446.443 44.6698 446.49 44.7631C446.583 44.9031 446.7 45.0198 446.84 45.1131C446.98 45.2064 447.097 45.2998 447.19 45.3931C447.283 45.4398 447.353 45.5098 447.4 45.6031C447.493 45.6964 447.563 45.7664 447.61 45.8131C447.75 45.8598 447.913 45.9064 448.1 45.9531C448.287 45.9531 448.45 45.9764 448.59 46.0231C449.243 46.2098 449.92 46.3031 450.62 46.3031C451.367 46.3031 452.067 46.3031 452.72 46.3031H457.2C457.853 46.3031 458.507 46.2798 459.16 46.2331C459.86 46.1864 460.513 46.0698 461.12 45.8831C461.867 45.6498 462.567 45.3698 463.22 45.0431C463.92 44.7164 464.643 44.4598 465.39 44.2731C466.043 44.1331 466.673 44.0864 467.28 44.1331C467.887 44.1331 468.493 44.2731 469.1 44.5531C469.193 44.5998 469.31 44.6464 469.45 44.6931C469.59 44.7398 469.707 44.8098 469.8 44.9031C469.893 44.9498 469.94 45.0431 469.94 45.1831C469.987 45.2764 470.033 45.3698 470.08 45.4631C470.173 45.5564 470.267 45.6731 470.36 45.8131C470.453 45.9531 470.5 46.0698 470.5 46.1631C470.5 46.3964 470.453 46.6064 470.36 46.7931C470.313 46.8864 470.29 47.0264 470.29 47.2131C470.29 47.3531 470.243 47.4698 470.15 47.5631C470.103 47.6098 470.033 47.6798 469.94 47.7731C469.893 47.8198 469.823 47.8898 469.73 47.9831C469.31 48.3564 468.913 48.5898 468.54 48.6831C467.793 48.9164 467.047 49.0564 466.3 49.1031C465.6 49.1498 464.877 49.2198 464.13 49.3131C463.803 49.3598 463.43 49.4531 463.01 49.5931C462.59 49.7331 462.217 49.9198 461.89 50.1531C461.75 50.2931 461.587 50.5031 461.4 50.7831C461.353 50.8764 461.283 50.9931 461.19 51.1331C461.097 51.2264 461.027 51.3198 460.98 51.4131C460.933 51.5064 460.887 51.6464 460.84 51.8331C460.84 51.9731 460.817 52.0898 460.77 52.1831C460.63 52.6964 460.537 53.2331 460.49 53.7931C460.443 54.3064 460.42 54.8198 460.42 55.3331C460.42 55.6598 460.42 56.0098 460.42 56.3831C460.42 56.7098 460.443 57.0598 460.49 57.4331C460.537 57.7131 460.583 58.0164 460.63 58.3431C460.677 58.6698 460.77 58.9498 460.91 59.1831C461.003 59.3231 461.097 59.4864 461.19 59.6731C461.283 59.8598 461.377 60.0231 461.47 60.1631C461.563 60.2564 461.657 60.3498 461.75 60.4431C461.89 60.4898 462.007 60.5598 462.1 60.6531C462.193 60.6998 462.287 60.7698 462.38 60.8631C462.52 60.9564 462.637 61.0264 462.73 61.0731C462.87 61.1198 463.01 61.1664 463.15 61.2131C463.337 61.2598 463.523 61.3064 463.71 61.3531C464.643 61.5864 465.577 61.6798 466.51 61.6331C467.49 61.5864 468.423 61.7264 469.31 62.0531C469.403 62.0998 469.543 62.1464 469.73 62.1931C469.917 62.2398 470.057 62.3098 470.15 62.4031C470.337 62.4498 470.477 62.5664 470.57 62.7531C470.71 62.9398 470.85 63.0798 470.99 63.1731C471.037 63.2198 471.083 63.2664 471.13 63.3131C471.177 63.3131 471.223 63.3598 471.27 63.4531C471.317 63.5464 471.317 63.7098 471.27 63.9431C471.27 64.1298 471.293 64.2698 471.34 64.3631C471.34 64.4098 471.34 64.5031 471.34 64.6431C471.387 64.7364 471.387 64.8298 471.34 64.9231C471.34 64.9698 471.27 65.0631 471.13 65.2031C470.99 65.3431 470.85 65.5064 470.71 65.6931C470.617 65.8798 470.5 66.0198 470.36 66.1131C470.033 66.2998 469.66 66.4398 469.24 66.5331C468.82 66.6264 468.423 66.6964 468.05 66.7431C467.35 66.8364 466.51 66.7664 465.53 66.5331C464.55 66.2531 463.57 65.9498 462.59 65.6231C461.61 65.2498 460.77 64.9698 460.07 64.7831C459.043 64.5498 457.713 64.4564 456.08 64.5031C454.493 64.5031 453.163 64.5031 452.09 64.5031C451.343 64.5031 450.573 64.5031 449.78 64.5031C448.987 64.5031 448.263 64.6664 447.61 64.9931C447.237 65.0864 446.98 65.1798 446.84 65.2731C446.747 65.3198 446.653 65.4364 446.56 65.6231C446.467 65.7631 446.373 65.8798 446.28 65.9731C446.233 66.0198 446.163 66.0898 446.07 66.1831C446.023 66.2298 445.977 66.2998 445.93 66.3931C445.883 66.4864 445.86 66.6031 445.86 66.7431C445.86 66.8364 445.837 66.9298 445.79 67.0231C445.79 67.1631 445.767 67.3031 445.72 67.4431C445.72 67.5831 445.72 67.7231 445.72 67.8631C445.72 68.1898 445.767 68.5398 445.86 68.9131C446 69.2864 446.14 69.6131 446.28 69.8931C446.793 70.9198 447.423 71.9931 448.17 73.1131C448.963 74.1864 449.873 75.0964 450.9 75.8431C451.32 76.2631 452.09 76.7064 453.21 77.1731C454.33 77.5931 455.613 78.0131 457.06 78.4331C458.507 78.8064 459.93 79.1564 461.33 79.4831C462.777 79.7631 464.06 79.9964 465.18 80.1831C466.3 80.3698 467.07 80.4631 467.49 80.4631C468.19 80.4631 469.1 80.4398 470.22 80.3931C471.387 80.3464 472.553 80.2298 473.72 80.0431C474.887 79.9031 475.843 79.7164 476.59 79.4831C477.103 79.1098 477.99 78.4798 479.25 77.5931C480.51 76.7064 481.863 75.7264 483.31 74.6531C484.757 73.5331 486.087 72.4831 487.3 71.5031C488.513 70.5231 489.353 69.7764 489.82 69.2631C490.193 68.1431 490.403 67.0464 490.45 65.9731ZM554.037 71.9931C553.711 72.6464 553.361 73.2998 552.987 73.9531C552.661 74.6064 552.241 75.2364 551.727 75.8431C550.934 76.7764 550.047 77.5931 549.067 78.2931C548.647 78.7131 547.784 79.1098 546.477 79.4831C545.171 79.8564 543.654 80.2064 541.927 80.5331C540.201 80.8598 538.451 81.1398 536.677 81.3731C534.951 81.6064 533.434 81.7698 532.127 81.8631C530.821 82.0031 529.957 82.0731 529.537 82.0731H516.307C515.654 82.0731 514.977 82.0498 514.277 82.0031C513.624 81.9564 512.994 81.8164 512.387 81.5831C511.734 81.3498 511.104 81.0231 510.497 80.6031C509.937 80.2298 509.331 79.8798 508.677 79.5531C508.211 79.3198 507.674 79.1098 507.067 78.9231C506.507 78.6898 506.017 78.3631 505.597 77.9431C505.131 77.4764 504.804 76.9164 504.617 76.2631C504.384 75.5631 504.221 74.8864 504.127 74.2331C503.987 73.1598 503.941 71.8764 503.987 70.3831C503.987 68.8898 503.987 67.6298 503.987 66.6031V36.1531C503.987 35.4531 504.011 34.7298 504.057 33.9831C504.057 33.2364 504.151 32.5364 504.337 31.8831C504.664 31.1831 505.364 30.5064 506.437 29.8531C507.511 29.1531 508.654 28.5698 509.867 28.1031C511.081 27.5898 512.037 27.3098 512.737 27.2631C513.811 27.2164 515.164 27.2164 516.797 27.2631C518.431 27.2631 519.761 27.2631 520.787 27.2631H535.347C536.421 27.2631 537.517 27.2631 538.637 27.2631C539.757 27.2164 540.831 27.2164 541.857 27.2631C542.511 27.3098 543.187 27.3798 543.887 27.4731C544.587 27.5198 545.241 27.7064 545.847 28.0331C546.454 28.3131 546.967 28.7098 547.387 29.2231C547.854 29.7364 548.274 30.2498 548.647 30.7631C549.161 31.4631 549.627 32.2098 550.047 33.0031C550.514 33.7964 550.841 34.6131 551.027 35.4531C551.261 36.2931 551.377 37.1564 551.377 38.0431C551.377 38.9298 551.377 39.8164 551.377 40.7031C551.377 41.4031 551.354 42.1264 551.307 42.8731C551.261 43.6198 551.097 44.3198 550.817 44.9731C550.771 45.0664 550.724 45.1831 550.677 45.3231C550.631 45.4631 550.561 45.5798 550.467 45.6731C550.141 46.1398 549.721 46.4898 549.207 46.7231C548.741 46.9098 548.251 47.0964 547.737 47.2831C547.597 47.3298 547.434 47.3764 547.247 47.4231C547.107 47.4698 546.967 47.5398 546.827 47.6331C546.641 47.6331 546.524 47.6564 546.477 47.7031C546.384 47.7964 546.314 47.9598 546.267 48.1931C546.221 48.3798 546.151 48.5431 546.057 48.6831C546.057 48.6831 546.034 48.7064 545.987 48.7531C545.987 48.7531 545.987 48.7764 545.987 48.8231C546.081 49.0098 546.197 49.1731 546.337 49.3131L547.177 50.3631C548.157 51.4364 549.021 52.5331 549.767 53.6531C550.467 54.6798 551.191 55.7998 551.937 57.0131C552.731 58.1798 553.384 59.2998 553.897 60.3731C554.271 60.8864 554.551 61.6798 554.737 62.7531C554.924 63.7798 555.017 64.8998 555.017 66.1131C555.064 67.3264 554.994 68.4698 554.807 69.5431C554.667 70.6164 554.411 71.4331 554.037 71.9931ZM541.157 30.8331H515.187C514.721 30.8331 514.254 30.8564 513.787 30.9031C513.367 30.9031 512.924 30.9731 512.457 31.1131C512.084 31.2064 511.687 31.3464 511.267 31.5331C510.894 31.7198 510.591 31.9998 510.357 32.3731C510.031 32.8398 509.797 33.3764 509.657 33.9831C509.564 34.5898 509.494 35.1731 509.447 35.7331V64.0831C509.447 65.1098 509.424 66.2764 509.377 67.5831C509.377 68.8898 509.401 70.0798 509.447 71.1531C509.494 71.3398 509.494 71.5731 509.447 71.8531C509.447 72.1331 509.471 72.3664 509.517 72.5531L510.077 73.1131C510.124 73.1598 510.171 73.2531 510.217 73.3931C510.311 73.4864 510.381 73.5331 510.427 73.5331C510.521 73.5331 510.661 73.4864 510.847 73.3931C511.081 73.2998 511.291 73.2064 511.477 73.1131C511.711 72.9731 511.921 72.8098 512.107 72.6231C512.714 71.9698 513.274 71.3164 513.787 70.6631C514.347 69.9631 514.907 69.2864 515.467 68.6331C515.981 68.1198 516.681 67.3031 517.567 66.1831C518.454 65.0631 519.364 63.8731 520.297 62.6131C521.277 61.3531 522.211 60.1631 523.097 59.0431C523.984 57.9231 524.684 57.1064 525.197 56.5931C525.711 55.9398 526.201 55.3331 526.667 54.7731C527.134 54.1664 527.601 53.5598 528.067 52.9531C528.254 52.7198 528.417 52.4864 528.557 52.2531C528.744 52.0198 528.907 51.7864 529.047 51.5531C529.141 51.4598 529.211 51.3664 529.257 51.2731C529.351 51.1331 529.397 51.0164 529.397 50.9231C529.491 50.7364 529.514 50.5498 529.467 50.3631C529.467 50.1764 529.467 49.9898 529.467 49.8031C529.514 49.7098 529.537 49.5931 529.537 49.4531C529.491 49.3131 529.397 49.1731 529.257 49.0331C529.164 48.8931 529.071 48.7764 528.977 48.6831C528.791 48.4498 528.627 48.2398 528.487 48.0531C528.394 47.8198 528.301 47.5864 528.207 47.3531C528.161 47.3064 528.091 47.2364 527.997 47.1431C527.951 47.0031 527.951 46.9098 527.997 46.8631C527.997 46.7698 528.044 46.6531 528.137 46.5131C528.277 46.3264 528.371 46.2098 528.417 46.1631C528.464 46.0698 528.511 45.9764 528.557 45.8831C528.604 45.7898 528.651 45.7198 528.697 45.6731C528.837 45.5798 529.024 45.5331 529.257 45.5331C529.491 45.4864 529.677 45.4398 529.817 45.3931C530.424 45.2064 531.031 45.1364 531.637 45.1831C532.291 45.1831 532.921 45.1831 533.527 45.1831H543.397C544.097 45.1831 544.797 45.1598 545.497 45.1131C546.197 45.0664 546.851 44.8798 547.457 44.5531C547.551 44.4598 547.667 44.3898 547.807 44.3431C547.947 44.2964 548.041 44.2498 548.087 44.2031C548.461 43.9231 548.717 43.5731 548.857 43.1531C549.044 42.7331 549.184 42.3364 549.277 41.9631C549.417 41.3098 549.487 40.6564 549.487 40.0031C549.487 39.3031 549.487 38.6498 549.487 38.0431C549.487 37.3898 549.487 36.7364 549.487 36.0831C549.534 35.3831 549.487 34.7298 549.347 34.1231C549.254 33.5631 549.091 33.0964 548.857 32.7231C548.811 32.5831 548.717 32.4664 548.577 32.3731C548.484 32.2331 548.391 32.1164 548.297 32.0231C548.251 31.9298 548.181 31.8598 548.087 31.8131C548.041 31.7198 547.971 31.6498 547.877 31.6031C547.784 31.5098 547.644 31.4398 547.457 31.3931C547.271 31.3464 547.107 31.2998 546.967 31.2531C546.081 30.9264 545.124 30.7864 544.097 30.8331C543.117 30.8331 542.137 30.8331 541.157 30.8331ZM542.417 78.4331C543.351 78.0598 544.284 77.6631 545.217 77.2431C546.151 76.7764 546.991 76.2398 547.737 75.6331C548.251 75.1198 548.834 74.2798 549.487 73.1131C550.141 71.9464 550.747 70.6864 551.307 69.3331C551.914 67.9798 552.381 66.7198 552.707 65.5531C553.081 64.3864 553.221 63.5464 553.127 63.0331C553.081 62.3331 552.801 61.3531 552.287 60.0931C551.821 58.7864 551.237 57.5031 550.537 56.2431C549.884 54.9831 549.207 54.0031 548.507 53.3031C547.667 52.5098 546.711 51.8564 545.637 51.3431C544.611 50.7831 543.561 50.3398 542.487 50.0131C541.834 49.7798 541.134 49.5698 540.387 49.3831C539.641 49.1498 538.894 49.0564 538.147 49.1031C538.007 49.1031 537.844 49.1031 537.657 49.1031C537.517 49.1031 537.377 49.1264 537.237 49.1731C536.584 49.3131 536.001 49.6164 535.487 50.0831C534.974 50.5498 534.507 51.0398 534.087 51.5531C533.434 52.2998 532.781 53.0931 532.127 53.9331C531.521 54.7264 530.891 55.5198 530.237 56.3131C530.051 56.4998 529.841 56.7564 529.607 57.0831C529.421 57.3631 529.281 57.6198 529.187 57.8531C529.141 57.9464 529.117 58.0864 529.117 58.2731C529.117 58.4131 529.117 58.5298 529.117 58.6231C529.117 58.6698 529.094 58.7864 529.047 58.9731C529.001 59.1598 529.001 59.2998 529.047 59.3931C529.094 59.4398 529.211 59.5098 529.397 59.6031C529.584 59.6964 529.701 59.7664 529.747 59.8131L530.447 60.2331C530.681 60.3264 530.914 60.3964 531.147 60.4431C531.427 60.4898 531.684 60.5598 531.917 60.6531C532.151 60.6998 532.384 60.7931 532.617 60.9331C532.851 61.0264 533.061 61.1431 533.247 61.2831C533.341 61.3764 533.434 61.5164 533.527 61.7031C533.667 61.8431 533.784 61.9831 533.877 62.1231C533.924 62.1698 533.971 62.2398 534.017 62.3331C534.111 62.4264 534.181 62.5198 534.227 62.6131C534.321 62.7064 534.367 62.8464 534.367 63.0331C534.367 63.1731 534.367 63.2898 534.367 63.3831C534.461 63.6631 534.507 63.9198 534.507 64.1531C534.414 65.1331 533.971 65.9964 533.177 66.7431C533.131 66.7898 533.037 66.8364 532.897 66.8831C532.757 66.9298 532.641 66.9764 532.547 67.0231C531.941 67.3498 531.241 67.5598 530.447 67.6531C529.701 67.6998 529.024 67.5364 528.417 67.1631C528.324 67.0698 528.207 66.9998 528.067 66.9531C527.927 66.8598 527.811 66.7664 527.717 66.6731C527.671 66.6264 527.624 66.5564 527.577 66.4631C527.531 66.3231 527.484 66.2298 527.437 66.1831L526.807 64.6431C526.807 64.5498 526.784 64.4098 526.737 64.2231C526.737 64.0364 526.691 63.9198 526.597 63.8731C526.551 63.7798 526.481 63.7098 526.387 63.6631C526.294 63.6164 526.201 63.5698 526.107 63.5231C526.061 63.4764 525.967 63.3831 525.827 63.2431C525.687 63.1031 525.571 63.0331 525.477 63.0331C525.431 63.0331 525.384 63.0564 525.337 63.1031C525.291 63.1498 525.221 63.1964 525.127 63.2431C524.987 63.3364 524.824 63.4298 524.637 63.5231C524.497 63.6164 524.357 63.7331 524.217 63.8731C524.031 64.0598 523.844 64.2698 523.657 64.5031C523.471 64.6898 523.284 64.8998 523.097 65.1331L521.137 67.6531C520.111 68.6798 519.084 69.9164 518.057 71.3631C517.077 72.8098 516.097 74.0698 515.117 75.1431C514.837 75.4698 514.557 75.8198 514.277 76.1931C514.044 76.5664 513.811 76.9631 513.577 77.3831C513.531 77.4298 513.461 77.5464 513.367 77.7331C513.274 77.8731 513.227 77.9898 513.227 78.0831C513.227 78.1764 513.251 78.2931 513.297 78.4331C513.391 78.5731 513.461 78.6898 513.507 78.7831C513.554 78.8298 513.577 78.9464 513.577 79.1331C513.624 79.2731 513.671 79.3898 513.717 79.4831C513.811 79.5298 513.904 79.5531 513.997 79.5531C514.137 79.5531 514.231 79.5764 514.277 79.6231C514.511 79.6698 514.744 79.7164 514.977 79.7631C515.257 79.8098 515.514 79.8331 515.747 79.8331H529.327C530.027 79.8331 530.891 79.8331 531.917 79.8331C532.991 79.8331 534.041 79.8098 535.067 79.7631C536.094 79.7164 536.957 79.6231 537.657 79.4831C539.104 79.2964 540.691 78.9464 542.417 78.4331ZM529.327 63.2431C529.281 63.2898 529.234 63.3131 529.187 63.3131C529.141 63.3131 529.071 63.3364 528.977 63.3831C528.977 63.3831 528.931 63.3831 528.837 63.3831C528.791 63.3831 528.791 63.4064 528.837 63.4531C528.884 63.4531 528.977 63.4298 529.117 63.3831C529.304 63.2898 529.374 63.2431 529.327 63.2431ZM607.299 64.7831C607.159 65.8098 606.925 67.0231 606.599 68.4231C606.272 69.7764 605.805 70.9898 605.199 72.0631C604.919 72.5298 604.615 73.0198 604.289 73.5331C603.962 74.0464 603.612 74.5131 603.239 74.9331C602.772 75.4464 602.282 75.9598 601.769 76.4731C601.255 76.9398 600.695 77.3831 600.089 77.8031C599.669 78.2231 598.922 78.6431 597.849 79.0631C596.775 79.4831 595.539 79.8798 594.139 80.2531C592.785 80.6264 591.409 80.9531 590.009 81.2331C588.655 81.5131 587.442 81.7231 586.369 81.8631C585.295 82.0498 584.549 82.1431 584.129 82.1431C583.102 82.1431 581.842 82.0731 580.349 81.9331C578.855 81.8398 577.572 81.6531 576.499 81.3731C576.172 81.2798 575.845 81.1864 575.519 81.0931C575.239 81.0464 574.935 80.9764 574.609 80.8831C574.562 80.8364 574.469 80.7898 574.329 80.7431C574.235 80.7431 574.142 80.7198 574.049 80.6731L573.979 80.1831C574.072 80.1364 574.212 80.1364 574.399 80.1831C574.585 80.2298 574.702 80.2531 574.749 80.2531C575.075 80.2998 575.402 80.3231 575.729 80.3231C576.055 80.3698 576.382 80.3931 576.709 80.3931C577.595 80.4398 578.482 80.4631 579.369 80.4631C580.255 80.4631 581.142 80.4164 582.029 80.3231C582.542 80.1831 583.499 79.8798 584.899 79.4131C586.345 78.8998 587.909 78.3164 589.589 77.6631C591.315 76.9631 592.879 76.2631 594.279 75.5631C595.725 74.8631 596.705 74.2564 597.219 73.7431C597.919 73.0431 598.572 72.0398 599.179 70.7331C599.785 69.4264 600.299 68.1198 600.719 66.8131C601.185 65.5064 601.512 64.5031 601.699 63.8031C601.885 62.7298 601.979 61.4698 601.979 60.0231C602.025 58.5298 602.049 57.2698 602.049 56.2431C602.049 55.5431 602.049 54.6098 602.049 53.4431C602.049 52.2298 602.025 51.0398 601.979 49.8731C601.932 48.6598 601.839 47.7031 601.699 47.0031C601.559 46.4898 601.279 45.7431 600.859 44.7631C600.439 43.7364 599.949 42.6631 599.389 41.5431C598.875 40.3764 598.315 39.3031 597.709 38.3231C597.102 37.2964 596.542 36.5264 596.029 36.0131C595.515 35.4998 594.535 34.9398 593.089 34.3331C591.642 33.6798 590.055 33.0731 588.329 32.5131C586.649 31.9064 585.085 31.4164 583.639 31.0431C582.192 30.6231 581.212 30.3664 580.699 30.2731C580.185 30.2264 579.392 30.2264 578.319 30.2731C577.245 30.2731 576.102 30.3198 574.889 30.4131C573.675 30.5064 572.532 30.6464 571.459 30.8331C570.385 31.0198 569.592 31.2531 569.079 31.5331C568.052 31.9998 566.745 32.6064 565.159 33.3531C563.619 34.0531 562.312 34.9164 561.239 35.9431C560.492 36.5498 559.792 37.2964 559.139 38.1831L558.369 39.0231C558.229 39.1631 558.159 39.2331 558.159 39.2331C558.112 39.2331 558.112 39.1631 558.159 39.0231C558.252 38.8364 558.322 38.7431 558.369 38.7431C558.462 38.4164 558.579 38.1131 558.719 37.8331C558.859 37.5531 559.022 37.2498 559.209 36.9231C559.909 35.8498 560.772 34.8464 561.799 33.9131C562.825 32.9331 563.852 32.0698 564.879 31.3231C565.672 30.7631 566.512 30.2964 567.399 29.9231C568.285 29.5031 569.172 29.1298 570.059 28.8031C570.479 28.3831 571.365 28.0331 572.719 27.7531C574.119 27.4264 575.729 27.1931 577.549 27.0531C579.415 26.8664 581.259 26.7731 583.079 26.7731C584.945 26.7264 586.555 26.7964 587.909 26.9831C589.309 27.1231 590.219 27.3798 590.639 27.7531C591.619 28.0331 592.575 28.3831 593.509 28.8031C594.442 29.1764 595.352 29.6198 596.239 30.1331C597.312 30.8798 598.479 31.8131 599.739 32.9331C600.999 34.0531 602.072 35.1498 602.959 36.2231C603.752 37.2498 604.382 38.5098 604.849 40.0031C605.362 41.4964 605.805 42.7798 606.179 43.8531C606.412 44.7864 606.645 45.7431 606.879 46.7231C607.112 47.7031 607.275 48.6598 607.369 49.5931C607.509 50.6198 607.579 51.8098 607.579 53.1631C607.625 54.5164 607.649 55.7298 607.649 56.8031C607.649 57.8298 607.625 59.1364 607.579 60.7231C607.532 62.2631 607.439 63.6164 607.299 64.7831ZM580.489 47.0731C580.302 47.4931 580.092 47.9364 579.859 48.4031C579.672 48.8231 579.532 49.2664 579.439 49.7331C579.112 50.7598 578.925 51.8331 578.879 52.9531C578.879 54.0731 578.879 55.1698 578.879 56.2431C578.879 56.8964 578.855 57.5964 578.809 58.3431C578.809 59.0431 578.902 59.7198 579.089 60.3731C579.182 60.5598 579.275 60.7931 579.369 61.0731C579.462 61.3531 579.555 61.5864 579.649 61.7731C579.835 62.0064 580.045 62.2164 580.279 62.4031C580.512 62.5898 580.722 62.7998 580.909 63.0331C581.002 63.1731 581.142 63.3364 581.329 63.5231C581.562 63.7098 581.702 63.8731 581.749 64.0131C581.749 64.1064 581.725 64.2464 581.679 64.4331C581.632 64.5731 581.585 64.6898 581.539 64.7831C581.539 64.8298 581.539 64.9231 581.539 65.0631C581.539 65.1564 581.492 65.2498 581.399 65.3431C581.352 65.4364 581.259 65.5298 581.119 65.6231C580.979 65.6698 580.862 65.7398 580.769 65.8331C580.302 66.1598 579.742 66.3698 579.089 66.4631C578.435 66.5564 577.805 66.5098 577.199 66.3231C576.265 66.0431 575.519 65.5064 574.959 64.7131C574.399 63.9198 574.002 63.0798 573.769 62.1931C573.582 61.4464 573.465 60.6764 573.419 59.8831C573.419 59.0431 573.395 58.2264 573.349 57.4331C573.349 56.3598 573.349 55.1698 573.349 53.8631C573.349 52.5098 573.395 51.3198 573.489 50.2931C573.582 49.4998 573.722 48.6831 573.909 47.8431C574.142 46.9564 574.562 46.2098 575.169 45.6031C576.009 44.6698 577.152 44.2031 578.599 44.2031C578.692 44.2031 578.809 44.2031 578.949 44.2031C579.135 44.2031 579.275 44.2264 579.369 44.2731C579.509 44.3198 579.649 44.4131 579.789 44.5531C579.975 44.6464 580.139 44.7398 580.279 44.8331C580.465 44.9264 580.582 44.9964 580.629 45.0431C580.675 45.0898 580.699 45.1831 580.699 45.3231C580.699 45.4164 580.699 45.5098 580.699 45.6031C580.745 45.8831 580.745 46.1164 580.699 46.3031C580.699 46.4898 580.629 46.7464 580.489 47.0731ZM655.892 38.3931V68.6331C655.892 69.3798 655.892 70.1498 655.892 70.9431C655.938 71.7364 655.915 72.5298 655.822 73.3231C655.775 73.6964 655.728 74.1164 655.682 74.5831C655.635 75.0031 655.495 75.3998 655.262 75.7731C655.168 75.9131 655.075 76.0998 654.982 76.3331C654.888 76.5198 654.795 76.6598 654.702 76.7531C654.608 76.8464 654.468 76.9164 654.282 76.9631C654.095 77.0098 653.955 77.0798 653.862 77.1731C653.815 77.1731 653.722 77.2198 653.582 77.3131C653.488 77.3598 653.395 77.3831 653.302 77.3831C653.255 77.3831 653.232 77.3364 653.232 77.2431L652.672 76.6131C652.532 76.4264 652.438 76.2398 652.392 76.0531C652.392 75.8198 652.368 75.5864 652.322 75.3531C652.275 74.8398 652.252 74.3264 652.252 73.8131C652.298 73.2531 652.322 72.6931 652.322 72.1331V40.0731C652.322 39.2798 652.322 38.4864 652.322 37.6931C652.368 36.8998 652.345 36.1298 652.252 35.3831C652.252 35.0098 652.228 34.6131 652.182 34.1931C652.135 33.7264 652.042 33.3298 651.902 33.0031C651.342 31.9298 650.385 31.2998 649.032 31.1131C647.725 30.9264 646.535 30.8331 645.462 30.8331H632.792C632.278 30.8331 631.392 30.8564 630.132 30.9031C628.918 30.9031 627.588 30.9498 626.142 31.0431C624.742 31.1364 623.412 31.2998 622.152 31.5331C620.938 31.7664 620.075 32.0698 619.562 32.4431C618.535 32.9564 617.228 33.6798 615.642 34.6131C614.102 35.5464 612.842 36.5498 611.862 37.6231C611.442 38.0431 611.022 38.8131 610.602 39.9331C610.228 41.0064 609.878 42.2664 609.552 43.7131C609.225 45.1131 608.992 46.5364 608.852 47.9831C608.712 49.3831 608.688 50.6431 608.782 51.7631C608.875 52.8364 609.132 53.5831 609.552 54.0031C609.878 54.7498 610.252 55.4498 610.672 56.1031C611.092 56.7564 611.535 57.4098 612.002 58.0631C612.422 58.5298 612.842 59.0198 613.262 59.5331C613.728 59.9998 614.125 60.5364 614.452 61.1431C614.498 61.2364 614.545 61.3531 614.592 61.4931C614.685 61.6331 614.732 61.7498 614.732 61.8431C614.778 62.0298 614.802 62.2864 614.802 62.6131C614.802 62.8931 614.755 63.1264 614.662 63.3131C614.568 63.9198 614.335 64.5498 613.962 65.2031C613.635 65.8098 613.308 66.3931 612.982 66.9531L609.552 73.3231C609.225 73.8364 608.898 74.3731 608.572 74.9331C608.292 75.4931 608.105 76.0998 608.012 76.7531C607.965 76.8464 607.918 76.9864 607.872 77.1731C607.825 77.3598 607.825 77.5231 607.872 77.6631C607.872 77.8498 607.918 78.0364 608.012 78.2231C608.152 78.4098 608.245 78.5731 608.292 78.7131C608.338 78.7598 608.362 78.8298 608.362 78.9231C608.408 78.9698 608.455 79.0164 608.502 79.0631C608.595 79.1564 608.712 79.2031 608.852 79.2031C609.038 79.2964 609.225 79.3898 609.412 79.4831C609.598 79.5764 609.785 79.6698 609.972 79.7631C610.298 79.8098 610.672 79.8331 611.092 79.8331C611.512 79.8331 611.885 79.8331 612.212 79.8331H619.072C619.212 79.8331 619.375 79.8331 619.562 79.8331C619.748 79.8798 619.958 79.9031 620.192 79.9031C620.332 79.9031 620.402 79.9031 620.402 79.9031C620.355 79.9498 620.308 79.9498 620.262 79.9031C620.262 79.9031 620.238 79.9264 620.192 79.9731C620.098 79.9731 619.982 79.9731 619.842 79.9731C619.748 80.0198 619.655 80.0431 619.562 80.0431C619.095 80.1364 618.605 80.1831 618.092 80.1831C617.625 80.2298 617.135 80.2764 616.622 80.3231C615.922 80.3231 614.988 80.3231 613.822 80.3231C612.702 80.3698 611.558 80.3698 610.392 80.3231C609.272 80.3231 608.362 80.2998 607.662 80.2531C607.335 80.2531 606.962 80.2298 606.542 80.1831C606.168 80.1364 605.818 80.0431 605.492 79.9031C605.398 79.8564 605.305 79.7864 605.212 79.6931C605.118 79.5998 605.025 79.5298 604.932 79.4831C604.885 79.3898 604.792 79.3198 604.652 79.2731C604.512 79.1798 604.395 79.0864 604.302 78.9931C604.208 78.8064 604.162 78.5731 604.162 78.2931C604.115 78.1998 604.068 78.0831 604.022 77.9431C603.975 77.8031 603.952 77.6631 603.952 77.5231C603.952 77.4298 603.975 77.3131 604.022 77.1731C604.068 77.0331 604.115 76.9164 604.162 76.8231C604.255 76.3098 604.395 75.8431 604.582 75.4231C604.815 75.0031 605.048 74.5831 605.282 74.1631C605.888 73.0898 606.495 71.9464 607.102 70.7331C607.755 69.4731 608.385 68.3298 608.992 67.3031C609.318 66.6964 609.645 66.0664 609.972 65.4131C610.298 64.7131 610.485 64.0131 610.532 63.3131C610.578 62.3798 610.322 61.5631 609.762 60.8631C609.202 60.1164 608.665 59.4398 608.152 58.8331C607.545 58.0398 606.985 57.2464 606.472 56.4531C606.005 55.6131 605.608 54.7498 605.282 53.8631C604.955 53.3498 604.722 52.5331 604.582 51.4131C604.395 50.2464 604.325 49.0098 604.372 47.7031C604.372 46.3964 604.488 45.1831 604.722 44.0631C604.955 42.8964 605.282 42.0564 605.702 41.5431C606.075 40.7031 606.495 39.8864 606.962 39.0931C607.475 38.2531 607.965 37.4598 608.432 36.7131C609.085 35.6864 609.715 34.6831 610.322 33.7031C610.975 32.6764 611.722 31.7431 612.562 30.9031C612.982 30.4831 613.915 30.0164 615.362 29.5031C616.808 28.9898 618.512 28.4998 620.472 28.0331C622.432 27.5198 624.392 27.0531 626.352 26.6331C628.312 26.2131 630.015 25.8864 631.462 25.6531C632.908 25.3731 633.842 25.2331 634.262 25.2331H645.672C646.278 25.2331 646.885 25.2564 647.492 25.3031C648.145 25.3031 648.775 25.4198 649.382 25.6531C650.035 25.8398 650.618 26.1431 651.132 26.5631C651.692 26.9831 652.228 27.4031 652.742 27.8231C652.975 28.0098 653.232 28.2198 653.512 28.4531C653.792 28.6864 654.048 28.9431 654.282 29.2231C654.982 29.9231 655.425 30.8564 655.612 32.0231C655.845 33.1431 655.938 34.2864 655.892 35.4531C655.892 36.6198 655.892 37.5998 655.892 38.3931ZM628.662 50.9231C627.962 50.5964 627.425 50.0598 627.052 49.3131C626.678 48.5198 626.562 47.7031 626.702 46.8631C626.795 46.6298 626.865 46.3964 626.912 46.1631C626.958 45.9298 627.052 45.7198 627.192 45.5331C627.285 45.3931 627.402 45.2764 627.542 45.1831C627.635 45.0898 627.728 44.9731 627.822 44.8331C627.962 44.6464 628.078 44.5298 628.172 44.4831C628.265 44.3898 628.382 44.3431 628.522 44.3431C628.662 44.3431 628.778 44.3198 628.872 44.2731C629.385 44.0864 629.875 43.9698 630.342 43.9231C630.855 43.8764 631.345 43.8531 631.812 43.8531C632.138 43.8531 632.418 43.8764 632.652 43.9231C632.932 43.9698 633.212 44.0398 633.492 44.1331C633.678 44.1331 633.865 44.1798 634.052 44.2731C634.145 44.3198 634.215 44.4598 634.262 44.6931C634.355 44.8798 634.425 45.0431 634.472 45.1831C634.705 45.5564 634.822 45.9764 634.822 46.4431C634.822 46.8631 634.822 47.3064 634.822 47.7731C634.822 47.9598 634.822 48.1698 634.822 48.4031C634.822 48.6364 634.775 48.8698 634.682 49.1031C634.635 49.2431 634.612 49.4298 634.612 49.6631C634.612 49.8964 634.565 50.0831 634.472 50.2231C634.285 50.3164 634.122 50.4331 633.982 50.5731C633.888 50.6198 633.772 50.7131 633.632 50.8531C633.492 50.9464 633.352 51.0398 633.212 51.1331C633.165 51.1798 633.072 51.2031 632.932 51.2031C632.838 51.1564 632.745 51.1564 632.652 51.2031C632.465 51.2031 632.255 51.2264 632.022 51.2731C631.788 51.2731 631.555 51.2731 631.322 51.2731C630.902 51.2264 630.435 51.2031 629.922 51.2031C629.455 51.1564 629.035 51.0631 628.662 50.9231ZM646.932 79.8331C647.072 79.8331 647.142 79.8331 647.142 79.8331C647.142 79.8798 647.095 79.9031 647.002 79.9031C646.908 79.9498 646.838 79.9731 646.792 79.9731C646.605 80.0198 646.442 80.0664 646.302 80.1131C646.162 80.1598 646.022 80.2064 645.882 80.2531C645.182 80.2998 644.482 80.3231 643.782 80.3231C643.128 80.3231 642.405 80.3231 641.612 80.3231H636.152C635.732 80.3231 635.312 80.2998 634.892 80.2531C634.472 80.2064 634.052 80.1131 633.632 79.9731C633.492 79.9264 633.352 79.8798 633.212 79.8331C633.072 79.8331 632.955 79.8098 632.862 79.7631C632.675 79.6698 632.465 79.5298 632.232 79.3431C631.998 79.1564 631.812 78.9931 631.672 78.8531C631.532 78.6198 631.392 78.3631 631.252 78.0831C631.158 77.8031 631.042 77.5698 630.902 77.3831L630.482 76.5431C630.435 76.4498 630.412 76.3798 630.412 76.3331C630.412 76.2864 630.365 76.2398 630.272 76.1931C630.225 76.1464 630.132 76.1464 629.992 76.1931C629.898 76.1931 629.805 76.1931 629.712 76.1931C629.432 76.2398 629.175 76.2864 628.942 76.3331C628.708 76.3331 628.452 76.3798 628.172 76.4731L627.612 76.6831L627.472 76.8231C627.425 76.7764 627.402 76.7064 627.402 76.6131C627.402 76.5198 627.378 76.4264 627.332 76.3331C627.332 76.1931 627.332 76.0998 627.332 76.0531C627.238 75.7731 627.192 75.5631 627.192 75.4231C627.192 75.3298 627.215 75.2364 627.262 75.1431C627.308 75.0498 627.355 74.9564 627.402 74.8631C627.495 74.6298 627.565 74.4198 627.612 74.2331C627.705 73.9998 627.798 73.7898 627.892 73.6031C628.545 72.1098 629.198 70.6631 629.852 69.2631C630.038 68.8898 630.202 68.4931 630.342 68.0731C630.528 67.6531 630.762 67.2798 631.042 66.9531C631.135 66.8131 631.252 66.6498 631.392 66.4631C631.532 66.2298 631.695 66.0664 631.882 65.9731C631.975 65.8798 632.092 65.8331 632.232 65.8331C632.418 65.7864 632.558 65.7398 632.652 65.6931C632.745 65.6931 632.838 65.6698 632.932 65.6231C633.072 65.5298 633.165 65.5064 633.212 65.5531C633.305 65.5531 633.398 65.5998 633.492 65.6931C633.585 65.7398 633.655 65.7864 633.702 65.8331C633.795 65.8798 633.912 65.9498 634.052 66.0431C634.238 66.1364 634.355 66.2298 634.402 66.3231C634.448 66.3698 634.472 66.4631 634.472 66.6031C634.472 66.6964 634.495 66.7664 634.542 66.8131C634.635 67.1398 634.682 67.4431 634.682 67.7231C634.728 68.0031 634.775 68.3064 634.822 68.6331C634.868 69.6598 634.868 70.6631 634.822 71.6431C634.822 72.6231 634.822 73.6031 634.822 74.5831C634.822 75.0498 634.845 75.5398 634.892 76.0531C634.938 76.5198 635.055 76.9864 635.242 77.4531C635.335 77.8264 635.428 78.0831 635.522 78.2231C635.802 78.7364 636.152 79.0864 636.572 79.2731C636.758 79.3664 636.945 79.4364 637.132 79.4831C637.365 79.5298 637.575 79.5764 637.762 79.6231C638.135 79.7164 638.532 79.7864 638.952 79.8331C639.418 79.8331 639.838 79.8331 640.212 79.8331H646.932Z" fill="#EFEFEF"/>
</g>
<defs>
<filter id="filter0_g_2_28" x="0" y="0" width="111.709" height="104.224" filterUnits="userSpaceOnUse" color-interpolation-filters="sRGB">
<feFlood flood-opacity="0" result="BackgroundImageFix"/>
<feBlend mode="normal" in="SourceGraphic" in2="BackgroundImageFix" result="shape"/>
<feTurbulence type="fractalNoise" baseFrequency="0.1666666716337204 0.1666666716337204" numOctaves="3" seed="7920" />
<feDisplacementMap in="shape" scale="4" xChannelSelector="R" yChannelSelector="G" result="displacedImage" width="100%" height="100%" />
<feMerge result="effect1_texture_2_28">
<feMergeNode in="displacedImage"/>
</feMerge>
</filter>
<filter id="filter1_g_2_28" x="14.9878" y="34.64" width="40.3859" height="40.6147" filterUnits="userSpaceOnUse" color-interpolation-filters="sRGB">
<feFlood flood-opacity="0" result="BackgroundImageFix"/>
<feBlend mode="normal" in="SourceGraphic" in2="BackgroundImageFix" result="shape"/>
<feTurbulence type="fractalNoise" baseFrequency="0.1666666716337204 0.1666666716337204" numOctaves="3" seed="7920" />
<feDisplacementMap in="shape" scale="4" xChannelSelector="R" yChannelSelector="G" result="displacedImage" width="100%" height="100%" />
<feMerge result="effect1_texture_2_28">
<feMergeNode in="displacedImage"/>
</feMerge>
</filter>
<filter id="filter2_g_2_28" x="59.063" y="28.9371" width="40.3859" height="40.6147" filterUnits="userSpaceOnUse" color-interpolation-filters="sRGB">
<feFlood flood-opacity="0" result="BackgroundImageFix"/>
<feBlend mode="normal" in="SourceGraphic" in2="BackgroundImageFix" result="shape"/>
<feTurbulence type="fractalNoise" baseFrequency="0.1666666716337204 0.1666666716337204" numOctaves="3" seed="7920" />
<feDisplacementMap in="shape" scale="4" xChannelSelector="R" yChannelSelector="G" result="displacedImage" width="100%" height="100%" />
<feMerge result="effect1_texture_2_28">
<feMergeNode in="displacedImage"/>
</feMerge>
</filter>
<filter id="filter3_g_2_28" x="124.203" y="23.2331" width="533.759" height="64.41" filterUnits="userSpaceOnUse" color-interpolation-filters="sRGB">
<feFlood flood-opacity="0" result="BackgroundImageFix"/>
<feBlend mode="normal" in="SourceGraphic" in2="BackgroundImageFix" result="shape"/>
<feTurbulence type="fractalNoise" baseFrequency="0.20000000298023224 0.20000000298023224" numOctaves="3" seed="1425" />
<feDisplacementMap in="shape" scale="4" xChannelSelector="R" yChannelSelector="G" result="displacedImage" width="100%" height="100%" />
<feMerge result="effect1_texture_2_28">
<feMergeNode in="displacedImage"/>
</feMerge>
</filter>
</defs>
</svg>
